if (_typeface_js && _typeface_js.loadFace) _typeface_js.loadFace({"glyphs":{"¦":{"x_min":288,"x_max":409,"ha":694,"o":"m 288 277 l 409 277 l 409 -237 l 288 -237 l 288 277 m 288 971 l 409 971 l 409 457 l 288 457 l 288 971 "},"Ž":{"x_min":-31,"x_max":828,"ha":811,"o":"m 147 999 l 828 999 l 802 866 l 201 142 l 702 142 l 676 0 l -31 0 l -4 132 l 598 860 l 120 860 l 147 999 m 363 1337 l 441 1337 l 532 1191 l 686 1337 l 774 1337 l 593 1094 l 454 1094 l 363 1337 "},"Á":{"x_min":-100,"x_max":792,"ha":865,"o":"m 506 830 l 277 386 l 570 386 l 506 830 m 430 999 l 630 999 l 792 0 l 626 0 l 590 244 l 205 244 l 77 0 l -100 0 l 430 999 m 588 1337 l 749 1337 l 519 1094 l 432 1094 l 588 1337 "},"Î":{"x_min":11,"x_max":516,"ha":392,"o":"m 209 999 l 381 999 l 180 0 l 11 0 l 209 999 m 284 1337 l 424 1337 l 516 1094 l 435 1094 l 345 1239 l 192 1094 l 105 1094 l 284 1337 "},"e":{"x_min":25,"x_max":714,"ha":786,"o":"m 702 322 l 181 322 q 179 305 179 313 q 179 287 179 297 q 222 154 179 201 q 344 108 265 108 q 450 138 405 108 q 515 226 495 169 l 677 226 q 557 44 649 111 q 333 -22 465 -22 q 105 64 186 -22 q 25 308 25 151 q 132 629 25 504 q 406 754 239 754 q 631 670 549 754 q 714 442 714 587 q 711 387 714 417 q 702 322 708 357 m 553 435 q 554 445 554 439 q 555 461 555 451 q 516 583 555 539 q 409 628 477 628 q 274 578 327 628 q 199 435 220 529 l 553 435 "},"»":{"x_min":-17,"x_max":557,"ha":618,"o":"m 370 616 l 557 417 l 530 292 l 265 115 l 294 255 l 463 366 l 343 492 l 370 616 m 88 616 l 275 417 l 250 292 l -17 115 l 12 255 l 182 366 l 62 492 l 88 616 "},"∆":{"x_min":-3,"x_max":948,"ha":946,"o":"m 472 811 l 216 144 l 728 144 l 472 811 m 385 999 l 559 999 l 948 0 l -3 0 l 385 999 "},"ò":{"x_min":22,"x_max":750,"ha":822,"o":"m 590 446 q 545 578 590 531 q 419 626 500 626 q 248 529 318 626 q 179 292 179 433 q 222 157 179 205 q 345 110 266 110 q 521 204 453 110 q 590 446 590 298 m 430 755 q 664 669 579 755 q 750 433 750 583 q 635 106 750 233 q 341 -21 520 -21 q 107 64 192 -21 q 22 300 22 150 q 137 626 22 498 q 430 755 252 755 m 274 1068 l 424 1068 l 555 825 l 474 825 l 274 1068 "},"^":{"x_min":283,"x_max":1104,"ha":1389,"o":"m 620 990 l 768 990 l 1104 610 l 963 610 l 694 878 l 423 610 l 283 610 l 620 990 "},"«":{"x_min":20,"x_max":594,"ha":618,"o":"m 594 616 l 564 475 l 396 365 l 516 238 l 490 115 l 302 313 l 328 438 l 594 616 m 312 616 l 284 475 l 113 365 l 234 238 l 207 115 l 20 313 l 45 438 l 312 616 "},"∙":{"x_min":102,"x_max":292,"ha":387,"o":"m 196 571 q 264 543 236 571 q 292 476 292 516 q 264 409 292 437 q 196 382 236 382 q 129 409 156 382 q 102 474 102 436 q 129 542 102 514 q 196 571 156 571 "},"í":{"x_min":-3,"x_max":449,"ha":343,"o":"m 141 732 l 294 732 l 151 0 l -3 0 l 141 732 m 288 1068 l 449 1068 l 219 825 l 132 825 l 288 1068 "},"ˆ":{"x_min":203,"x_max":614,"ha":694,"o":"m 382 1068 l 522 1068 l 614 825 l 533 825 l 443 970 l 290 825 l 203 825 l 382 1068 "},"µ":{"x_min":-62,"x_max":759,"ha":819,"o":"m 139 733 l 294 733 l 209 302 q 203 265 205 283 q 201 232 201 248 q 233 133 201 167 q 325 99 264 99 q 456 158 408 99 q 532 357 505 218 l 606 733 l 759 733 l 660 232 q 650 177 653 199 q 647 142 647 155 q 658 107 647 117 q 693 97 668 97 q 707 97 702 97 q 716 99 712 98 l 695 -9 q 648 -17 673 -15 q 593 -20 623 -20 q 517 0 543 -20 q 492 64 492 22 l 492 74 q 418 3 464 28 q 319 -22 373 -22 q 226 -4 264 -22 q 160 52 188 13 l 93 -292 l -62 -292 l 139 733 "},"č":{"x_min":26,"x_max":714,"ha":783,"o":"m 714 482 l 559 482 q 520 586 559 548 q 413 625 481 625 q 250 531 317 625 q 184 301 184 438 q 225 161 184 210 q 345 113 267 113 q 458 154 409 113 q 529 268 508 196 l 684 268 q 564 55 658 133 q 333 -22 469 -22 q 105 64 184 -22 q 26 311 26 150 q 138 628 26 503 q 422 754 250 754 q 634 682 558 754 q 714 482 710 611 m 277 1068 l 355 1068 l 446 922 l 600 1068 l 688 1068 l 507 825 l 368 825 l 277 1068 "},"’":{"x_min":127,"x_max":356,"ha":354,"o":"m 193 999 l 356 999 l 325 844 q 255 711 309 761 q 127 654 201 660 l 137 716 q 207 755 181 725 q 243 837 234 785 l 160 837 l 193 999 "},"-":{"x_min":14,"x_max":378,"ha":440,"o":"m 43 438 l 378 438 l 350 298 l 14 298 l 43 438 "},"Q":{"x_min":54,"x_max":1016,"ha":1076,"o":"m 784 75 l 888 -46 l 789 -132 l 668 7 q 568 -19 616 -10 q 474 -28 520 -28 q 164 85 275 -28 q 54 402 54 199 q 92 633 54 520 q 203 837 131 746 q 376 977 277 930 q 595 1025 476 1025 q 904 905 792 1025 q 1016 576 1016 786 q 955 296 1016 427 q 784 75 895 166 m 684 190 q 804 364 761 260 q 848 584 848 467 q 778 800 848 722 q 585 879 708 879 q 440 845 506 879 q 327 747 373 811 q 249 586 277 679 q 222 395 222 494 q 289 189 222 263 q 477 115 357 115 q 521 117 498 115 q 567 125 543 120 l 483 224 l 581 309 l 684 190 "},"M":{"x_min":8,"x_max":1182,"ha":1190,"o":"m 8 0 l 204 999 l 445 999 l 539 219 l 938 999 l 1182 999 l 984 0 l 829 0 l 998 828 l 577 0 l 421 0 l 324 829 l 165 0 l 8 0 "},"œ":{"x_min":22,"x_max":1244,"ha":1320,"o":"m 725 435 l 1088 435 q 1090 445 1090 440 q 1091 461 1091 451 q 1050 585 1091 542 q 931 629 1009 629 q 801 579 853 629 q 725 435 748 530 m 414 629 q 247 538 314 629 q 181 306 181 447 q 223 156 181 208 q 346 105 266 105 q 511 196 447 105 q 575 436 575 287 q 533 579 575 530 q 414 629 492 629 m 606 106 q 483 9 552 41 q 330 -22 414 -22 q 104 67 186 -22 q 22 311 22 156 q 134 631 22 506 q 419 757 246 757 q 570 725 509 757 q 666 629 630 694 q 788 725 720 693 q 938 757 855 757 q 1163 673 1082 757 q 1244 444 1244 590 q 1241 387 1244 417 q 1235 324 1239 357 l 710 324 q 707 304 708 314 q 707 275 707 294 q 750 150 707 195 q 871 105 794 105 q 984 137 936 105 q 1053 227 1032 170 l 1210 227 q 1083 42 1174 106 q 858 -22 993 -22 q 710 8 770 -22 q 606 106 649 39 "},"{":{"x_min":110,"x_max":593,"ha":694,"o":"m 593 1002 l 593 881 q 576 881 587 881 q 561 882 565 882 q 461 854 487 882 q 435 736 435 826 l 435 573 q 405 423 435 468 q 297 360 375 379 q 404 297 374 342 q 435 148 435 253 l 435 -13 q 461 -131 435 -102 q 562 -160 488 -160 q 577 -159 567 -160 q 593 -159 587 -159 l 593 -280 l 550 -280 q 438 -271 481 -280 q 365 -246 395 -263 q 311 -181 327 -223 q 296 -42 296 -138 l 296 125 q 260 262 296 222 q 139 302 224 302 q 124 301 134 302 q 110 301 114 301 l 110 422 q 124 420 114 422 q 139 419 134 419 q 260 459 224 419 q 296 596 296 499 l 296 764 q 311 904 296 862 q 365 968 327 945 q 439 994 395 986 q 562 1002 483 1002 l 593 1002 "},"¼":{"x_min":99,"x_max":1173,"ha":1209,"o":"m 1051 432 l 819 200 l 999 200 l 1051 432 m 1067 532 l 1168 532 l 1095 200 l 1173 200 l 1157 129 l 1079 129 l 1050 0 l 954 0 l 983 129 l 721 129 l 735 208 l 1067 532 m 857 977 l 952 977 l 350 -27 l 255 -27 l 857 977 m 314 961 l 390 961 l 269 418 l 172 418 l 263 822 q 189 808 229 813 q 99 803 148 803 l 112 864 q 242 891 193 868 q 314 961 290 914 "},"#":{"x_min":47,"x_max":1020,"ha":1068,"o":"m 480 578 l 418 405 l 592 405 l 653 578 l 480 578 m 497 990 l 627 990 l 522 695 l 692 695 l 798 990 l 927 990 l 822 695 l 1020 695 l 980 578 l 781 578 l 720 407 l 929 407 l 888 290 l 680 290 l 574 -4 l 445 -4 l 550 290 l 379 290 l 272 -4 l 143 -4 l 249 290 l 47 290 l 88 407 l 289 407 l 350 578 l 137 578 l 178 695 l 392 695 l 497 990 "},"Ê":{"x_min":8,"x_max":831,"ha":831,"o":"m 205 999 l 831 999 l 803 853 l 341 853 l 287 589 l 728 589 l 698 446 l 259 446 l 201 144 l 696 144 l 667 0 l 8 0 l 205 999 m 503 1337 l 643 1337 l 735 1094 l 654 1094 l 564 1239 l 411 1094 l 324 1094 l 503 1337 "},")":{"x_min":-107,"x_max":365,"ha":488,"o":"m 136 999 l 238 999 q 333 727 302 858 q 365 472 365 597 q 280 97 365 278 q 16 -277 196 -84 l -107 -277 q 136 133 59 -67 q 214 555 214 334 q 194 779 214 668 q 136 999 175 889 "},"Å":{"x_min":-100,"x_max":792,"ha":865,"o":"m 508 830 l 278 386 l 571 386 l 508 830 m 427 987 l 633 987 l 792 0 l 626 0 l 591 244 l 205 244 l 78 0 l -100 0 l 427 987 m 541 1255 q 486 1232 509 1255 q 464 1177 464 1210 q 486 1123 464 1145 q 541 1101 509 1101 q 595 1123 573 1101 q 618 1177 618 1145 q 595 1232 618 1210 q 541 1255 573 1255 m 540 1337 q 653 1290 607 1337 q 700 1177 700 1244 q 653 1065 700 1111 q 540 1019 607 1019 q 427 1064 472 1019 q 382 1177 382 1110 q 428 1290 382 1244 q 540 1337 474 1337 "},"¸":{"x_min":52,"x_max":418,"ha":694,"o":"m 223 0 l 282 0 l 259 -66 l 268 -66 q 379 -95 341 -66 q 418 -179 418 -124 q 373 -285 418 -246 q 251 -325 329 -325 q 164 -316 212 -325 q 52 -287 115 -307 l 79 -215 q 162 -238 124 -231 q 232 -246 200 -246 q 292 -231 272 -246 q 312 -186 312 -216 q 283 -144 312 -156 q 176 -133 255 -133 l 223 0 "},"a":{"x_min":12,"x_max":676,"ha":775,"o":"m 488 360 q 361 334 440 341 q 258 321 282 327 q 185 277 210 307 q 160 203 160 247 q 189 127 160 155 q 271 99 219 99 q 420 165 365 99 q 488 360 474 232 m 667 485 l 612 205 q 606 170 607 182 q 605 149 605 158 q 616 111 605 123 q 654 99 628 99 l 666 99 l 646 -1 q 609 -9 629 -6 q 566 -12 589 -12 q 481 9 510 -12 q 452 73 452 30 l 452 85 q 355 6 409 32 q 235 -20 302 -20 q 72 37 132 -20 q 12 191 12 94 q 77 360 12 296 q 266 440 142 424 q 357 449 300 444 q 527 554 527 465 q 496 610 527 592 q 398 628 466 628 q 284 604 321 628 q 235 523 248 580 l 86 523 q 181 693 104 637 q 401 750 259 750 q 606 702 536 750 q 676 565 676 655 q 673 526 676 546 q 667 485 671 506 "},"=":{"x_min":172,"x_max":984,"ha":1157,"o":"m 172 330 l 984 330 l 984 218 l 172 218 l 172 330 m 172 611 l 984 611 l 984 497 l 172 497 l 172 611 "},"˚":{"x_min":272,"x_max":622,"ha":694,"o":"m 447 1080 q 380 1053 407 1080 q 354 987 354 1026 q 381 921 354 948 q 447 894 408 894 q 513 921 486 894 q 540 987 540 948 q 513 1053 540 1026 q 447 1080 486 1080 m 446 1162 q 571 1111 521 1162 q 622 987 622 1060 q 571 862 622 913 q 446 812 521 812 q 322 862 372 812 q 272 987 272 913 q 322 1111 272 1060 q 446 1162 372 1162 "},"ú":{"x_min":28,"x_max":753,"ha":796,"o":"m 133 733 l 288 733 l 195 262 q 193 251 195 259 q 187 200 187 217 q 213 136 187 159 q 286 114 239 114 q 441 175 379 114 q 526 355 502 237 l 601 733 l 753 733 l 609 0 l 469 0 l 490 112 q 371 17 433 49 q 240 -14 308 -14 q 81 31 135 -14 q 28 166 28 77 q 30 203 28 182 q 37 249 32 224 l 133 733 m 515 1068 l 676 1068 l 446 825 l 359 825 l 515 1068 "},"¯":{"x_min":239,"x_max":635,"ha":694,"o":"m 258 990 l 635 990 l 615 892 l 239 892 l 258 990 "},"Z":{"x_min":-31,"x_max":828,"ha":811,"o":"m 147 999 l 828 999 l 802 866 l 201 142 l 702 142 l 676 0 l -31 0 l -4 132 l 598 860 l 120 860 l 147 999 "},"u":{"x_min":28,"x_max":753,"ha":796,"o":"m 133 733 l 288 733 l 195 262 q 193 251 195 259 q 187 200 187 217 q 213 136 187 159 q 286 114 239 114 q 441 175 379 114 q 526 355 502 237 l 601 733 l 753 733 l 609 0 l 469 0 l 490 112 q 371 17 433 49 q 240 -14 308 -14 q 81 31 135 -14 q 28 166 28 77 q 30 203 28 182 q 37 249 32 224 l 133 733 "},"k":{"x_min":-1,"x_max":746,"ha":705,"o":"m 196 999 l 347 999 l 233 425 l 552 732 l 746 732 l 444 457 l 612 0 l 453 0 l 326 350 l 197 232 l 148 0 l -1 0 l 196 999 "},"Ù":{"x_min":69,"x_max":975,"ha":982,"o":"m 204 999 l 372 999 l 245 359 q 238 311 240 328 q 236 282 236 294 q 285 165 236 206 q 427 124 335 124 q 596 178 535 124 q 680 351 657 233 l 810 999 l 975 999 l 845 340 q 702 65 808 156 q 416 -26 596 -26 q 163 55 258 -26 q 69 271 69 137 q 73 327 69 294 q 85 404 77 360 l 204 999 m 432 1337 l 582 1337 l 713 1094 l 632 1094 l 432 1337 "},"¢":{"x_min":33,"x_max":721,"ha":775,"o":"m 427 625 l 423 625 q 259 532 326 625 q 193 302 193 439 q 214 194 193 239 q 276 129 235 150 l 427 625 m 502 883 l 568 883 l 526 743 q 669 649 619 716 q 721 482 719 583 l 567 482 l 567 486 q 546 562 567 530 q 484 613 526 594 l 332 113 q 339 112 334 112 q 352 112 344 112 q 466 152 418 112 q 537 268 514 193 l 691 268 q 569 55 663 133 q 340 -22 476 -22 q 322 -21 332 -22 q 294 -19 313 -20 l 250 -167 l 182 -167 l 230 -6 q 83 103 134 22 q 33 307 33 183 q 144 629 33 505 q 436 754 256 754 q 449 753 440 754 q 462 752 458 752 l 502 883 "},"Ş":{"x_min":14,"x_max":808,"ha":823,"o":"m 808 712 l 650 712 q 600 840 648 795 q 463 885 552 885 q 340 849 386 885 q 295 757 295 814 q 326 672 295 707 q 459 587 357 636 q 674 444 615 513 q 734 281 734 376 q 632 57 734 142 q 366 -28 531 -28 q 108 57 203 -28 q 14 288 14 142 l 14 312 l 173 312 l 173 299 q 228 162 173 212 q 378 112 283 112 q 511 155 459 112 q 563 265 563 199 q 536 346 563 312 q 443 414 510 380 q 388 442 424 424 q 213 546 260 508 q 145 632 168 583 q 123 741 123 681 q 218 944 123 865 q 467 1023 313 1023 q 718 944 628 1023 q 808 726 808 866 l 808 712 m 288 0 l 347 0 l 324 -66 l 333 -66 q 444 -95 406 -66 q 483 -179 483 -124 q 438 -285 483 -246 q 316 -325 394 -325 q 229 -316 277 -325 q 117 -287 180 -307 l 144 -215 q 227 -238 189 -231 q 297 -246 265 -246 q 357 -231 337 -246 q 377 -186 377 -216 q 348 -144 377 -156 q 241 -133 320 -133 l 288 0 "},"é":{"x_min":25,"x_max":714,"ha":786,"o":"m 702 322 l 181 322 q 179 305 179 313 q 179 287 179 297 q 222 154 179 201 q 344 108 265 108 q 450 138 405 108 q 515 226 495 169 l 677 226 q 557 44 649 111 q 333 -22 465 -22 q 105 64 186 -22 q 25 308 25 151 q 132 629 25 504 q 406 754 239 754 q 631 670 549 754 q 714 442 714 587 q 711 387 714 417 q 702 322 708 357 m 553 435 q 554 445 554 439 q 555 461 555 451 q 516 583 555 539 q 409 628 477 628 q 274 578 327 628 q 199 435 220 529 l 553 435 m 467 1068 l 628 1068 l 398 825 l 311 825 l 467 1068 "},"B":{"x_min":8,"x_max":896,"ha":950,"o":"m 259 453 l 198 142 l 436 142 q 553 149 514 142 q 618 175 592 156 q 669 236 651 198 q 688 316 688 273 q 644 420 688 388 q 504 453 601 453 l 259 453 m 341 859 l 287 586 l 515 586 q 679 623 627 586 q 732 740 732 660 q 694 830 732 801 q 573 859 656 859 l 341 859 m 205 999 l 588 999 q 818 935 740 999 q 896 748 896 872 q 854 602 896 662 q 733 514 813 542 q 825 435 795 484 q 856 314 856 386 q 759 82 856 165 q 487 0 662 0 l 8 0 l 205 999 "},"…":{"x_min":53,"x_max":1191,"ha":1389,"o":"m 88 172 l 265 172 l 230 0 l 53 0 l 88 172 m 550 172 l 727 172 l 692 0 l 515 0 l 550 172 m 1014 172 l 1191 172 l 1156 0 l 979 0 l 1014 172 "},"H":{"x_min":8,"x_max":981,"ha":989,"o":"m 205 999 l 372 999 l 292 600 l 737 600 l 816 999 l 981 999 l 783 0 l 619 0 l 710 458 l 263 458 l 173 0 l 8 0 l 205 999 "},"î":{"x_min":-3,"x_max":439,"ha":343,"o":"m 141 732 l 294 732 l 151 0 l -3 0 l 141 732 m 207 1068 l 347 1068 l 439 825 l 358 825 l 268 970 l 115 825 l 28 825 l 207 1068 "},"−":{"x_min":172,"x_max":984,"ha":1157,"o":"m 172 472 l 984 472 l 984 357 l 172 357 l 172 472 "},"≠":{"x_min":172,"x_max":984,"ha":1157,"o":"m 815 822 l 899 754 l 784 609 l 984 609 l 984 499 l 710 499 l 577 329 l 984 329 l 984 220 l 504 220 l 336 6 l 252 74 l 367 220 l 172 220 l 172 329 l 438 329 l 573 499 l 172 499 l 172 609 l 646 609 l 815 822 "},"¥":{"x_min":-10,"x_max":841,"ha":815,"o":"m 91 945 l 248 945 l 410 520 l 674 945 l 841 945 l 618 604 l 821 604 l 807 535 l 574 535 l 516 446 l 789 446 l 777 378 l 470 378 l 398 0 l 241 0 l 309 378 l -10 378 l 4 446 l 287 446 l 252 535 l 21 535 l 34 604 l 224 604 l 91 945 "},"U":{"x_min":69,"x_max":975,"ha":982,"o":"m 204 999 l 372 999 l 245 359 q 238 311 240 328 q 236 282 236 294 q 285 165 236 206 q 427 124 335 124 q 596 178 535 124 q 680 351 657 233 l 810 999 l 975 999 l 845 340 q 702 65 808 156 q 416 -26 596 -26 q 163 55 258 -26 q 69 271 69 137 q 73 327 69 294 q 85 404 77 360 l 204 999 "},"Ñ":{"x_min":8,"x_max":982,"ha":989,"o":"m 206 999 l 372 999 l 673 254 l 819 999 l 982 999 l 784 0 l 622 0 l 317 743 l 170 0 l 8 0 l 206 999 m 773 1300 l 847 1300 q 791 1188 827 1224 q 701 1153 756 1153 q 675 1154 686 1153 q 653 1159 664 1155 l 602 1175 q 583 1180 593 1178 q 562 1182 573 1182 q 523 1167 538 1182 q 501 1125 508 1152 l 428 1125 q 481 1239 445 1200 q 571 1278 517 1278 q 597 1275 583 1278 q 625 1269 611 1273 l 676 1252 q 697 1247 689 1248 q 712 1246 705 1246 q 750 1259 735 1246 q 773 1300 764 1272 "},"F":{"x_min":8,"x_max":791,"ha":760,"o":"m 206 999 l 791 999 l 763 853 l 344 853 l 290 581 l 688 581 l 659 435 l 259 435 l 173 0 l 8 0 l 206 999 "},"*":{"x_min":104,"x_max":670,"ha":694,"o":"m 328 999 l 446 999 l 446 801 l 628 863 l 670 744 l 476 693 l 607 529 l 505 454 l 386 626 l 268 456 l 165 527 l 296 693 l 104 745 l 144 865 l 328 801 l 328 999 "},"†":{"x_min":69,"x_max":676,"ha":694,"o":"m 366 999 l 498 999 l 448 714 l 676 714 l 659 604 l 430 604 l 300 -144 l 165 -144 l 295 604 l 69 604 l 90 714 l 316 714 l 366 999 "},"∕":{"x_min":-233,"x_max":464,"ha":232,"o":"m 369 977 l 464 977 l -137 -27 l -233 -27 l 369 977 "},"°":{"x_min":29,"x_max":429,"ha":457,"o":"m 229 915 q 140 878 177 915 q 103 789 103 841 q 140 701 103 738 q 229 664 177 664 q 318 700 282 664 q 355 789 355 737 q 318 878 355 841 q 229 915 282 915 m 229 990 q 370 931 311 990 q 429 788 429 872 q 370 647 429 706 q 227 589 311 589 q 86 646 144 589 q 29 788 29 704 q 87 931 29 873 q 229 990 145 990 "},"å":{"x_min":12,"x_max":676,"ha":775,"o":"m 447 1080 q 380 1053 407 1080 q 354 987 354 1026 q 381 921 354 948 q 447 894 408 894 q 513 921 486 894 q 540 987 540 948 q 513 1053 540 1026 q 447 1080 486 1080 m 446 1162 q 571 1111 521 1162 q 622 987 622 1060 q 571 862 622 913 q 446 812 521 812 q 322 862 372 812 q 272 987 272 913 q 322 1111 272 1060 q 446 1162 372 1162 m 488 360 q 361 334 440 341 q 258 321 282 327 q 185 277 210 307 q 160 203 160 247 q 189 127 160 155 q 271 99 219 99 q 420 165 365 99 q 488 360 474 232 m 667 485 l 612 205 q 606 170 608 182 q 605 149 605 158 q 616 111 605 123 q 654 99 628 99 l 666 99 l 646 -1 q 609 -9 628 -6 q 566 -12 589 -12 q 481 9 510 -12 q 452 73 452 30 l 452 85 q 355 6 409 32 q 236 -20 302 -20 q 72 37 132 -20 q 12 191 12 94 q 77 360 12 296 q 266 440 142 424 q 357 449 300 444 q 527 554 527 465 q 496 610 527 592 q 398 628 466 628 q 285 604 321 628 q 236 523 248 580 l 86 523 q 181 693 104 637 q 401 750 259 750 q 606 702 536 750 q 676 565 676 655 q 673 526 676 546 q 667 485 671 506 "},"0":{"x_min":35,"x_max":741,"ha":775,"o":"m 444 979 q 665 886 589 979 q 741 614 741 793 q 707 363 741 488 q 614 140 673 238 q 490 14 563 57 q 330 -29 418 -29 q 110 64 186 -29 q 35 337 35 158 q 70 599 35 471 q 171 821 106 726 q 293 939 223 899 q 444 979 362 979 m 580 637 q 546 799 580 747 q 440 851 512 851 q 354 820 393 851 q 286 730 315 790 q 220 530 244 642 q 196 311 196 417 q 231 154 196 206 q 336 103 266 103 q 420 131 382 103 q 485 213 458 159 q 554 418 528 303 q 580 637 580 532 "},"":{"x_min":77,"x_max":1021,"ha":1097,"o":"m 567 824 q 566 834 566 828 q 565 849 565 839 q 630 1005 565 934 q 790 1094 694 1077 q 791 1079 791 1087 q 791 1052 791 1070 q 721 893 791 963 q 583 823 651 823 l 578 823 q 573 824 576 823 q 567 824 570 824 m 1021 273 q 881 40 943 105 q 743 -24 820 -24 q 654 -1 709 -24 q 571 20 599 20 q 482 -1 540 20 q 396 -24 424 -24 q 309 5 353 -24 q 221 95 265 35 q 114 295 152 190 q 77 499 77 401 q 161 741 77 648 q 380 835 246 835 q 485 811 426 835 q 569 788 544 788 q 652 812 592 788 q 755 836 711 836 q 889 809 830 836 q 999 725 949 782 q 896 626 929 680 q 863 502 863 571 q 903 366 863 425 q 1021 273 944 307 "},"”":{"x_min":127,"x_max":598,"ha":596,"o":"m 434 999 l 598 999 l 566 844 q 496 710 549 761 q 369 654 444 660 l 379 716 q 450 757 424 726 q 485 838 476 787 l 401 838 l 434 999 m 194 999 l 356 999 l 325 844 q 255 711 309 762 q 127 654 201 660 l 138 716 q 208 756 181 726 q 243 838 234 786 l 161 838 l 194 999 "},"ö":{"x_min":22,"x_max":750,"ha":822,"o":"m 590 446 q 545 578 590 531 q 419 626 500 626 q 248 529 318 626 q 179 292 179 433 q 222 157 179 205 q 345 110 266 110 q 521 204 453 110 q 590 446 590 298 m 430 755 q 664 669 579 755 q 750 433 750 583 q 635 106 750 233 q 341 -21 520 -21 q 107 64 192 -21 q 22 300 22 150 q 137 626 22 498 q 430 755 252 755 m 535 1018 l 672 1018 l 641 865 l 507 865 l 535 1018 m 309 1018 l 445 1018 l 415 865 l 280 865 l 309 1018 "},"Õ":{"x_min":56,"x_max":1018,"ha":1076,"o":"m 848 594 q 778 805 848 730 q 583 880 709 880 q 444 848 508 880 q 336 757 380 816 q 254 594 284 688 q 224 405 224 500 q 293 191 224 267 q 487 116 362 116 q 622 146 559 116 q 730 234 684 177 q 816 399 785 303 q 848 594 848 495 m 599 1026 q 906 909 794 1026 q 1018 587 1018 792 q 974 343 1018 461 q 849 134 930 225 q 684 13 780 55 q 474 -28 588 -28 q 167 87 279 -28 q 56 405 56 202 q 100 653 56 533 q 224 862 144 773 q 392 983 295 941 q 599 1026 490 1026 m 791 1300 l 865 1300 q 809 1188 845 1224 q 719 1153 774 1153 q 693 1154 704 1153 q 671 1159 682 1155 l 620 1175 q 601 1180 611 1178 q 580 1182 591 1182 q 541 1167 556 1182 q 519 1125 526 1152 l 446 1125 q 499 1239 463 1200 q 589 1278 535 1278 q 615 1275 601 1278 q 643 1269 629 1273 l 694 1252 q 715 1247 707 1248 q 730 1246 723 1246 q 768 1259 753 1246 q 791 1300 782 1272 "},"ć":{"x_min":26,"x_max":714,"ha":783,"o":"m 714 482 l 559 482 q 520 586 559 548 q 413 625 481 625 q 250 531 317 625 q 184 301 184 438 q 225 161 184 210 q 345 113 267 113 q 458 154 409 113 q 529 268 508 196 l 684 268 q 564 55 658 133 q 333 -22 469 -22 q 105 64 184 -22 q 26 311 26 150 q 138 628 26 503 q 422 754 250 754 q 634 682 558 754 q 714 482 710 611 m 488 1068 l 649 1068 l 419 825 l 332 825 l 488 1068 "},"þ":{"x_min":-56,"x_max":755,"ha":831,"o":"m 597 446 q 556 578 597 531 q 443 626 516 626 q 279 530 347 626 q 212 294 212 434 q 253 160 212 208 q 369 113 294 113 q 531 207 466 113 q 597 446 597 302 m 190 999 l 340 999 l 271 635 q 369 721 312 692 q 492 751 425 751 q 683 668 612 751 q 755 445 755 586 q 726 262 755 349 q 646 109 698 175 q 532 12 597 46 q 396 -21 468 -21 q 263 14 318 -21 q 173 121 207 49 l 94 -292 l -56 -292 l 190 999 "},"]":{"x_min":-69,"x_max":456,"ha":509,"o":"m 175 999 l 456 999 l 208 -266 l -69 -266 l -51 -155 l 83 -155 l 290 888 l 155 888 l 175 999 "},"8":{"x_min":39,"x_max":733,"ha":775,"o":"m 528 294 q 487 401 528 362 q 375 440 446 440 q 247 386 297 440 q 198 250 198 333 q 236 136 198 176 q 346 97 275 97 q 476 152 425 97 q 528 294 528 208 m 572 495 q 657 411 629 461 q 685 291 685 360 q 590 62 685 150 q 344 -26 496 -26 q 121 47 204 -26 q 39 245 39 121 q 87 414 39 344 q 232 520 136 483 q 156 598 182 551 q 131 702 131 644 q 217 895 131 819 q 440 971 304 971 q 653 904 574 971 q 733 726 733 837 q 691 584 733 643 q 572 495 650 524 m 578 711 q 541 807 578 772 q 440 843 504 843 q 324 800 368 843 q 281 690 281 758 q 317 592 281 627 q 421 558 354 558 q 534 600 491 558 q 578 711 578 642 "},"R":{"x_min":8,"x_max":890,"ha":937,"o":"m 341 857 l 281 551 l 503 551 q 667 596 611 551 q 723 728 723 641 q 681 825 723 793 q 556 857 640 857 l 341 857 m 205 999 l 565 999 q 808 933 727 999 q 890 739 890 868 q 843 567 890 637 q 707 467 796 498 q 767 414 749 447 q 785 317 785 380 q 785 294 785 302 q 784 278 784 285 l 778 170 q 777 143 778 156 q 777 117 777 130 q 785 62 777 83 q 811 27 793 41 l 811 0 l 619 0 q 609 27 612 12 q 606 56 606 41 q 606 110 606 92 q 607 142 607 128 l 614 258 q 615 270 614 262 q 615 283 615 279 q 580 384 615 357 q 445 412 544 412 l 254 412 l 172 0 l 8 0 l 205 999 "},"o":{"x_min":22,"x_max":750,"ha":822,"o":"m 590 446 q 545 578 590 531 q 419 626 500 626 q 248 529 318 626 q 179 292 179 433 q 222 157 179 205 q 345 110 266 110 q 521 204 453 110 q 590 446 590 298 m 430 755 q 664 669 579 755 q 750 433 750 583 q 635 106 750 233 q 341 -21 520 -21 q 107 64 192 -21 q 22 300 22 150 q 137 626 22 498 q 430 755 252 755 "},"5":{"x_min":35,"x_max":732.515625,"ha":775,"o":"m 214 943 l 732 943 l 707 811 l 314 811 l 254 593 q 330 633 287 620 q 429 646 374 646 q 628 566 554 646 q 702 352 702 487 q 596 77 702 184 q 325 -29 491 -29 q 112 43 189 -29 q 35 244 35 116 l 35 266 l 185 266 l 185 253 q 223 140 185 179 q 334 102 262 102 q 486 170 428 102 q 544 351 544 238 q 502 477 544 433 q 382 521 460 521 q 286 497 328 521 q 223 432 244 474 l 79 432 l 214 943 "},"õ":{"x_min":22,"x_max":750,"ha":822,"o":"m 590 446 q 545 578 590 531 q 419 626 500 626 q 248 529 318 626 q 179 292 179 433 q 222 157 179 205 q 345 110 266 110 q 521 204 453 110 q 590 446 590 298 m 430 755 q 664 669 579 755 q 750 433 750 583 q 635 106 750 233 q 341 -21 520 -21 q 107 64 192 -21 q 22 300 22 150 q 137 626 22 498 q 430 755 252 755 m 612 1031 l 686 1031 q 630 919 666 955 q 540 884 595 884 q 514 885 525 884 q 492 890 503 886 l 441 906 q 422 911 432 909 q 401 913 412 913 q 362 898 377 913 q 340 856 347 883 l 267 856 q 320 970 284 931 q 410 1009 356 1009 q 436 1006 422 1009 q 464 1000 450 1004 l 515 983 q 536 978 528 979 q 551 977 544 977 q 589 990 574 977 q 612 1031 603 1003 "},",":{"x_min":-25,"x_max":229,"ha":386,"o":"m 54 172 l 229 172 l 194 4 q 118 -156 172 -101 q -25 -221 64 -211 l -8 -151 q 67 -105 38 -142 q 108 0 95 -68 l 19 0 l 54 172 "},"d":{"x_min":22,"x_max":836,"ha":831,"o":"m 568 440 q 526 572 568 525 q 409 619 484 619 q 245 523 311 619 q 179 283 179 428 q 220 152 179 199 q 336 106 261 106 q 502 200 435 106 q 568 440 568 294 m 686 999 l 836 999 l 642 0 l 503 0 l 522 106 q 417 9 474 40 q 290 -22 361 -22 q 93 60 164 -22 q 22 287 22 142 q 49 467 22 381 q 128 618 77 554 q 244 717 179 683 q 382 751 309 751 q 520 714 463 751 q 608 608 576 678 l 686 999 "},"\"":{"x_min":59,"x_max":379,"ha":436,"o":"m 268 974 l 379 974 l 379 596 l 268 596 l 268 974 m 59 974 l 170 974 l 170 596 l 59 596 l 59 974 "},"˙":{"x_min":349,"x_max":524,"ha":694,"o":"m 379 1022 l 524 1022 l 492 861 l 349 861 l 379 1022 "},"ê":{"x_min":25,"x_max":714,"ha":786,"o":"m 702 322 l 181 322 q 179 305 179 313 q 179 287 179 297 q 222 154 179 201 q 344 108 265 108 q 450 138 405 108 q 515 226 495 169 l 677 226 q 557 44 649 111 q 333 -22 465 -22 q 105 64 186 -22 q 25 308 25 151 q 132 629 25 504 q 406 754 239 754 q 631 670 549 754 q 714 442 714 587 q 711 387 714 417 q 702 322 708 357 m 553 435 q 554 445 554 439 q 555 461 555 451 q 516 583 555 539 q 409 628 477 628 q 274 578 327 628 q 199 435 220 529 l 553 435 m 386 1068 l 526 1068 l 618 825 l 537 825 l 447 970 l 294 825 l 207 825 l 386 1068 "},"„":{"x_min":-35,"x_max":436,"ha":596,"o":"m 272 161 l 436 161 l 404 6 q 334 -127 387 -76 q 207 -184 282 -177 l 218 -120 q 288 -79 262 -109 q 323 0 315 -49 l 238 0 l 272 161 m 31 161 l 196 161 l 164 6 q 94 -126 147 -76 q -35 -184 41 -177 l -24 -120 q 46 -80 20 -109 q 81 0 72 -50 l -1 0 l 31 161 "},"Â":{"x_min":-100,"x_max":792,"ha":865,"o":"m 506 830 l 277 386 l 570 386 l 506 830 m 430 999 l 630 999 l 792 0 l 626 0 l 590 244 l 205 244 l 77 0 l -100 0 l 430 999 m 507 1337 l 647 1337 l 739 1094 l 658 1094 l 568 1239 l 415 1094 l 328 1094 l 507 1337 "},"Í":{"x_min":11,"x_max":526,"ha":392,"o":"m 209 999 l 381 999 l 180 0 l 11 0 l 209 999 m 365 1337 l 526 1337 l 296 1094 l 209 1094 l 365 1337 "},"´":{"x_min":307,"x_max":624,"ha":694,"o":"m 463 1068 l 624 1068 l 394 825 l 307 825 l 463 1068 "},"Ú":{"x_min":69,"x_max":975,"ha":982,"o":"m 204 999 l 372 999 l 245 359 q 238 311 240 328 q 236 282 236 294 q 285 165 236 206 q 427 124 335 124 q 596 178 535 124 q 680 351 657 233 l 810 999 l 975 999 l 845 340 q 702 65 808 156 q 416 -26 596 -26 q 163 55 258 -26 q 69 271 69 137 q 73 327 69 294 q 85 404 77 360 l 204 999 m 660 1337 l 821 1337 l 591 1094 l 504 1094 l 660 1337 "},"Ý":{"x_min":37,"x_max":830,"ha":742,"o":"m 37 999 l 213 999 l 374 559 l 646 999 l 830 999 l 432 385 l 360 0 l 195 0 l 271 400 l 37 999 m 540 1337 l 701 1337 l 471 1094 l 384 1094 l 540 1337 "},"Ω":{"x_min":47.390625,"x_max":1016.625,"ha":1064,"o":"m 809 144 l 1016 144 l 1016 0 l 609 0 l 609 154 q 772 320 717 218 q 828 559 828 423 q 745 791 828 702 q 531 881 663 881 q 317 791 398 881 q 236 551 236 701 q 292 319 236 421 q 455 154 349 216 l 455 0 l 47 0 l 47 144 l 254 144 q 110 329 156 232 q 65 548 65 427 q 194 893 65 761 q 531 1025 323 1025 q 868 894 737 1025 q 999 559 999 763 q 954 333 999 430 q 809 144 910 236 "},"Ö":{"x_min":56,"x_max":1018,"ha":1076,"o":"m 848 594 q 778 805 848 730 q 583 880 709 880 q 444 848 508 880 q 336 757 380 816 q 254 594 284 688 q 224 405 224 500 q 293 191 224 267 q 487 116 362 116 q 622 146 559 116 q 730 234 684 177 q 816 399 785 303 q 848 594 848 495 m 599 1026 q 906 909 794 1026 q 1018 587 1018 792 q 974 343 1018 461 q 849 134 930 225 q 684 13 780 55 q 474 -28 588 -28 q 167 87 279 -28 q 56 405 56 202 q 100 653 56 533 q 224 862 144 773 q 392 983 295 941 q 599 1026 490 1026 m 714 1287 l 851 1287 l 820 1134 l 686 1134 l 714 1287 m 488 1287 l 624 1287 l 594 1134 l 459 1134 l 488 1287 "},"z":{"x_min":-50,"x_max":647,"ha":656,"o":"m 71 733 l 647 733 l 623 614 l 176 132 l 572 132 l 547 0 l -50 0 l -27 120 l 416 603 l 47 603 l 71 733 "},"™":{"x_min":154,"x_max":966,"ha":1157,"o":"m 549 990 l 664 990 l 760 745 l 850 990 l 966 990 l 966 622 l 889 622 l 889 912 l 780 622 l 740 622 l 627 912 l 627 622 l 549 622 l 549 990 m 154 990 l 470 990 l 470 926 l 356 926 l 356 622 l 269 622 l 269 926 l 154 926 l 154 990 "},"ã":{"x_min":12,"x_max":676,"ha":775,"o":"m 488 360 q 361 334 440 341 q 258 321 282 327 q 185 277 210 307 q 160 203 160 247 q 189 127 160 155 q 271 99 219 99 q 420 165 365 99 q 488 360 474 232 m 667 485 l 612 205 q 606 170 607 182 q 605 149 605 158 q 616 111 605 123 q 654 99 628 99 l 666 99 l 646 -1 q 609 -9 629 -6 q 566 -12 589 -12 q 481 9 510 -12 q 452 73 452 30 l 452 85 q 355 6 409 32 q 235 -20 302 -20 q 72 37 132 -20 q 12 191 12 94 q 77 360 12 296 q 266 440 142 424 q 357 449 300 444 q 527 554 527 465 q 496 610 527 592 q 398 628 466 628 q 284 604 321 628 q 235 523 248 580 l 86 523 q 181 693 104 637 q 401 750 259 750 q 606 702 536 750 q 676 565 676 655 q 673 526 676 546 q 667 485 671 506 m 584 1031 l 658 1031 q 602 919 638 955 q 512 884 567 884 q 486 885 497 884 q 464 890 475 886 l 413 906 q 394 911 404 909 q 373 913 384 913 q 334 898 349 913 q 312 856 319 883 l 239 856 q 292 970 256 931 q 382 1009 328 1009 q 408 1006 394 1009 q 436 1000 422 1004 l 487 983 q 508 978 500 979 q 523 977 516 977 q 561 990 546 977 q 584 1031 575 1003 "},"æ":{"x_min":-4,"x_max":1143,"ha":1219,"o":"m 483 370 q 338 338 424 348 q 230 321 252 329 q 169 278 189 306 q 150 205 150 249 q 179 132 150 159 q 258 106 208 106 q 396 158 337 106 q 470 295 456 211 l 483 370 m 988 437 l 988 460 q 951 586 988 543 q 841 630 914 630 q 707 577 762 630 q 639 437 651 524 l 988 437 m 617 664 q 730 732 670 710 q 856 755 789 755 q 1066 668 989 755 q 1143 432 1143 581 q 1140 388 1142 413 q 1135 323 1139 363 l 620 323 q 618 297 618 306 q 617 281 617 288 q 659 151 617 197 q 777 106 701 106 q 888 137 841 106 q 954 226 935 169 l 1110 226 q 991 44 1082 110 q 769 -22 900 -22 q 612 15 675 -22 q 517 124 548 53 q 384 15 457 52 q 229 -22 311 -22 q 59 38 122 -22 q -4 200 -4 98 q 20 305 -4 258 q 90 385 44 352 q 331 451 159 434 q 361 455 350 453 q 467 486 431 462 q 502 551 502 510 q 465 607 502 584 q 370 630 429 630 q 269 605 303 630 q 222 526 234 581 l 69 526 q 168 697 87 640 q 393 755 249 755 q 528 731 470 755 q 617 664 585 708 "},"É":{"x_min":8,"x_max":831,"ha":831,"o":"m 205 999 l 831 999 l 803 853 l 341 853 l 287 589 l 728 589 l 698 446 l 259 446 l 201 144 l 696 144 l 667 0 l 8 0 l 205 999 m 584 1337 l 745 1337 l 515 1094 l 428 1094 l 584 1337 "},"~":{"x_min":121,"x_max":1038,"ha":1157,"o":"m 1038 533 l 1038 408 q 904 335 968 359 q 779 311 839 311 q 716 316 749 311 q 650 335 683 322 q 598 353 633 340 q 382 405 454 405 q 264 379 326 405 q 121 296 201 353 l 121 421 q 258 495 192 471 q 383 520 323 520 q 468 511 425 520 q 582 478 511 503 q 611 468 591 475 q 780 428 722 428 q 900 453 838 428 q 1038 533 963 479 "},"³":{"x_min":11,"x_max":480,"ha":511,"o":"m 368 673 q 426 624 407 654 q 446 552 446 594 q 381 416 446 469 q 213 364 317 364 q 64 408 118 364 q 11 531 11 452 q 11 549 11 541 q 12 565 11 556 l 115 565 q 113 553 114 559 q 113 532 113 546 q 138 464 113 488 q 213 441 164 441 q 306 473 271 441 q 342 556 342 505 q 313 619 342 597 q 232 642 285 642 q 219 641 223 642 q 211 640 214 641 l 226 713 q 236 712 230 713 q 244 712 242 712 q 342 736 308 712 q 377 806 377 761 q 351 865 377 844 q 282 887 326 887 q 206 861 234 887 q 170 783 178 835 l 68 783 q 137 916 80 870 q 290 962 194 962 q 428 921 377 962 q 480 812 480 880 q 451 728 480 763 q 368 673 423 692 "},"¡":{"x_min":45,"x_max":406,"ha":452,"o":"m 228 722 l 317 722 l 215 0 l 45 0 l 228 722 m 232 999 l 406 999 l 374 825 l 199 825 l 232 999 "},"[":{"x_min":3,"x_max":529,"ha":509,"o":"m 251 999 l 529 999 l 510 888 l 375 888 l 168 -155 l 304 -155 l 283 -266 l 3 -266 l 251 999 "},"%":{"x_min":47,"x_max":1135,"ha":1182,"o":"m 890 360 q 801 324 837 360 q 766 235 766 289 q 802 146 766 183 q 890 109 838 109 q 977 146 940 109 q 1014 235 1014 184 q 977 323 1014 287 q 890 360 941 360 m 890 481 q 1063 408 991 481 q 1135 234 1135 336 q 1063 60 1135 133 q 890 -12 991 -12 q 716 59 787 -12 q 645 234 645 131 q 716 409 645 337 q 890 481 787 481 m 292 835 q 203 798 239 835 q 168 709 168 762 q 203 620 168 656 q 292 584 239 584 q 380 620 344 584 q 416 709 416 657 q 380 798 416 762 q 292 835 344 835 m 292 956 q 465 883 393 956 q 537 709 537 811 q 465 535 537 607 q 292 463 393 463 q 117 534 188 463 q 47 709 47 605 q 117 884 47 813 q 292 956 188 956 m 837 971 l 931 971 l 344 -27 l 249 -27 l 837 971 "},"P":{"x_min":8,"x_max":850,"ha":884,"o":"m 343 856 l 277 525 l 459 525 q 632 571 576 525 q 689 715 689 618 q 649 821 689 786 q 527 856 609 856 l 343 856 m 205 999 l 541 999 q 769 927 689 999 q 850 725 850 855 q 749 471 850 557 q 451 386 648 386 l 250 386 l 172 0 l 8 0 l 205 999 "},"∏":{"x_min":104,"x_max":963,"ha":1071,"o":"m 104 999 l 963 999 l 963 -266 l 768 -266 l 768 834 l 299 834 l 299 -266 l 104 -266 l 104 999 "},"_":{"x_min":0,"x_max":694,"ha":694,"o":"m 0 -211 l 694 -211 l 694 -328 l 0 -328 l 0 -211 "},"ñ":{"x_min":-5,"x_max":720,"ha":796,"o":"m 709 483 l 614 0 l 458 0 l 551 471 q 558 507 556 492 q 560 535 560 523 q 534 597 560 575 q 461 620 508 620 q 305 557 367 620 q 221 378 243 495 l 147 0 l -5 0 l 137 733 l 278 733 l 256 620 q 377 717 313 684 q 509 750 440 750 q 665 703 611 750 q 720 568 720 656 q 717 529 720 550 q 709 483 715 508 m 625 1031 l 699 1031 q 643 919 679 955 q 553 884 608 884 q 527 885 538 884 q 505 890 516 886 l 454 906 q 435 911 445 909 q 414 913 425 913 q 375 898 390 913 q 353 856 360 883 l 280 856 q 333 970 297 931 q 423 1009 369 1009 q 449 1006 435 1009 q 477 1000 463 1004 l 528 983 q 549 978 541 979 q 564 977 557 977 q 602 990 587 977 q 625 1031 616 1003 "},"‚":{"x_min":-35,"x_max":196,"ha":354,"o":"m 31 161 l 196 161 l 164 6 q 94 -126 147 -75 q -35 -184 41 -177 l -24 -119 q 46 -80 20 -109 q 81 0 72 -51 l -1 0 l 31 161 "},"Æ":{"x_min":-123,"x_max":1295,"ha":1270,"o":"m 476 999 l 1295 999 l 1267 853 l 819 853 l 765 589 l 1193 589 l 1164 446 l 737 446 l 676 144 l 1160 144 l 1130 0 l 487 0 l 539 244 l 201 244 l 58 0 l -123 0 l 476 999 m 558 857 l 283 386 l 565 386 l 660 857 l 558 857 "},"₣":{"x_min":8,"x_max":1273,"ha":1243,"o":"m 206 999 l 791 999 l 763 853 l 344 853 l 290 581 l 688 581 l 659 435 l 259 435 l 173 0 l 8 0 l 206 999 m 1273 747 l 1241 582 q 1215 584 1228 583 q 1191 586 1203 586 q 1056 528 1108 586 q 980 348 1004 470 l 911 0 l 757 0 l 901 732 l 1044 732 l 1015 592 q 1115 713 1064 675 q 1228 751 1167 751 q 1250 750 1239 751 q 1273 747 1262 749 "},"ğ":{"x_min":-10,"x_max":786,"ha":831,"o":"m 409 620 q 246 531 309 620 q 184 299 184 442 q 225 167 184 213 q 344 122 266 122 q 506 210 445 122 q 568 446 568 299 q 526 574 568 529 q 409 620 484 620 m 509 96 q 416 18 470 45 q 298 -8 362 -8 q 98 74 171 -8 q 26 304 26 157 q 130 626 26 498 q 389 754 234 754 q 530 714 474 754 q 612 601 587 675 l 638 733 l 786 733 l 641 -5 q 524 -230 611 -160 q 276 -300 437 -300 q 64 -239 139 -300 q -10 -70 -10 -179 l 144 -70 l 144 -77 q 181 -150 144 -123 q 284 -177 219 -177 q 434 -117 384 -177 q 509 96 483 -58 m 323 1046 l 398 1046 l 398 1033 q 421 967 398 988 q 497 946 445 946 q 592 970 554 946 q 651 1046 630 994 l 730 1046 q 642 897 702 947 q 488 847 581 847 q 363 888 404 847 q 322 1014 322 929 q 322 1033 322 1026 q 323 1046 322 1040 "},"ª":{"x_min":10,"x_max":508,"ha":582,"o":"m 367 737 q 272 719 331 724 q 194 710 213 714 q 139 679 158 701 q 120 628 120 658 q 142 574 120 594 q 204 554 165 554 q 315 600 274 554 q 367 737 356 647 m 501 825 l 460 629 q 458 618 459 625 q 455 590 455 598 q 463 562 455 571 q 491 554 472 554 l 500 554 l 487 483 q 458 478 472 479 q 426 476 445 477 q 362 491 383 476 q 341 536 341 506 l 341 544 q 268 489 308 507 q 178 471 227 471 q 55 511 100 471 q 10 619 10 551 q 58 737 10 693 q 200 793 107 782 q 269 799 226 796 q 397 872 397 810 q 374 911 397 899 q 299 924 351 924 q 214 907 240 924 q 178 851 187 891 l 65 851 q 137 970 79 931 q 301 1010 195 1010 q 455 977 402 1010 q 508 880 508 944 q 506 851 508 865 q 501 825 505 838 "},"Œ":{"x_min":56,"x_max":1509,"ha":1485,"o":"m 822 761 q 727 854 784 823 q 592 885 670 885 q 449 852 514 885 q 337 756 383 819 q 255 595 285 689 q 226 406 226 501 q 292 192 226 272 q 470 112 358 112 q 602 143 541 112 q 717 237 664 174 l 822 761 m 850 899 l 868 999 l 1509 999 l 1481 853 l 1001 853 l 946 589 l 1406 589 l 1378 446 l 920 446 l 860 144 l 1374 144 l 1346 0 l 671 0 l 688 80 q 570 0 636 26 q 425 -28 504 -28 q 158 92 261 -28 q 56 403 56 212 q 99 644 56 526 q 220 854 142 763 q 384 979 291 936 q 585 1023 478 1023 q 735 992 670 1023 q 850 899 801 962 "},"T":{"x_min":82,"x_max":840,"ha":766,"o":"m 109 999 l 840 999 l 812 859 l 543 859 l 373 0 l 208 0 l 376 859 l 82 859 l 109 999 "},"š":{"x_min":-4,"x_max":660,"ha":688,"o":"m 633 501 l 489 501 q 451 599 484 567 q 351 632 417 632 q 266 611 297 632 q 236 554 236 590 q 349 445 236 501 q 387 426 373 433 q 549 318 512 362 q 586 212 586 274 q 505 40 586 104 q 288 -24 425 -24 q 74 44 152 -24 q -4 233 -4 113 l -4 253 l 142 253 q 181 131 142 172 q 297 91 220 91 q 396 117 361 91 q 431 190 431 143 q 404 249 431 222 q 278 324 378 275 q 116 430 152 386 q 81 539 81 474 q 155 693 81 634 q 352 753 230 753 q 557 689 482 753 q 633 515 633 625 l 633 501 m 249 1068 l 327 1068 l 418 922 l 572 1068 l 660 1068 l 479 825 l 340 825 l 249 1068 "},"Þ":{"x_min":10,"x_max":818,"ha":865,"o":"m 249 390 l 429 390 q 604 432 549 390 q 659 566 659 474 q 619 653 659 625 q 496 682 580 682 l 307 682 l 249 390 m 10 0 l 205 999 l 368 999 l 334 818 l 510 818 q 739 752 660 818 q 818 562 818 687 q 716 331 818 410 q 421 252 615 252 l 222 252 l 172 0 l 10 0 "},"j":{"x_min":-129,"x_max":355,"ha":347,"o":"m 149 733 l 302 733 l 137 -92 q 68 -248 115 -204 q -69 -292 22 -292 q -95 -290 -81 -292 q -129 -287 -110 -289 l -109 -160 q -99 -161 -106 -160 q -88 -162 -92 -162 q -38 -147 -53 -162 q -13 -90 -22 -133 l 149 733 m 202 999 l 355 999 l 324 842 l 172 842 l 202 999 "},"1":{"x_min":158,"x_max":618,"ha":775,"o":"m 498 971 l 618 971 l 428 0 l 273 0 l 415 722 q 298 697 362 705 q 158 686 234 688 l 179 797 q 384 846 307 804 q 498 971 461 888 "},"›":{"x_min":-17,"x_max":275,"ha":335,"o":"m 86 616 l 275 417 l 248 292 l -17 115 l 12 255 l 180 366 l 60 492 l 86 616 "},"<":{"x_min":179,"x_max":978,"ha":1157,"o":"m 978 797 l 978 671 l 344 413 l 978 155 l 978 32 l 179 359 l 179 467 l 978 797 "},"t":{"x_min":37.4375,"x_max":434,"ha":431,"o":"m 204 938 l 357 938 l 317 733 l 434 733 l 411 615 l 294 615 l 212 207 q 208 178 210 192 q 206 155 206 163 q 218 123 206 134 q 256 113 231 113 q 293 115 274 113 q 333 122 313 117 l 309 -2 q 261 -14 286 -10 q 209 -18 236 -18 q 88 13 128 -18 q 49 111 49 45 q 51 143 49 124 q 57 184 53 163 l 142 615 l 37 615 l 59 733 l 164 733 l 204 938 "},"¬":{"x_min":172,"x_max":984,"ha":1157,"o":"m 172 585 l 984 585 l 984 245 l 871 245 l 871 472 l 172 472 l 172 585 "},"ù":{"x_min":28,"x_max":753,"ha":796,"o":"m 133 733 l 288 733 l 195 262 q 193 251 195 259 q 187 200 187 217 q 213 136 187 159 q 286 114 239 114 q 441 175 379 114 q 526 355 502 237 l 601 733 l 753 733 l 609 0 l 469 0 l 490 112 q 371 17 433 49 q 240 -14 308 -14 q 81 31 135 -14 q 28 166 28 77 q 30 203 28 182 q 37 249 32 224 l 133 733 m 287 1068 l 437 1068 l 568 825 l 487 825 l 287 1068 "},"ï":{"x_min":-3,"x_max":458,"ha":343,"o":"m 141 732 l 294 732 l 151 0 l -3 0 l 141 732 m 321 1018 l 458 1018 l 427 865 l 293 865 l 321 1018 m 95 1018 l 231 1018 l 201 865 l 66 865 l 95 1018 "},"Ò":{"x_min":56,"x_max":1018,"ha":1076,"o":"m 848 594 q 778 805 848 730 q 583 880 709 880 q 444 848 508 880 q 336 757 380 816 q 254 594 284 688 q 224 405 224 500 q 293 191 224 267 q 487 116 362 116 q 622 146 559 116 q 730 234 684 177 q 816 399 785 303 q 848 594 848 495 m 599 1026 q 906 909 794 1026 q 1018 587 1018 792 q 974 343 1018 461 q 849 134 930 225 q 684 13 780 55 q 474 -28 588 -28 q 167 87 279 -28 q 56 405 56 202 q 100 653 56 533 q 224 862 144 773 q 392 983 295 941 q 599 1026 490 1026 m 453 1337 l 603 1337 l 734 1094 l 653 1094 l 453 1337 "},"&":{"x_min":8,"x_max":824.84375,"ha":928,"o":"m 404 641 q 504 713 473 677 q 536 793 536 750 q 509 861 536 837 q 436 886 483 886 q 367 860 394 886 q 341 793 341 835 q 355 733 341 767 q 404 641 369 698 m 510 184 l 339 470 q 203 378 243 424 q 163 270 163 332 q 206 156 163 199 q 320 113 249 113 q 416 131 368 113 q 510 184 464 149 m 577 70 q 442 -1 512 23 q 300 -26 371 -26 q 90 54 172 -26 q 8 259 8 135 q 71 440 8 364 q 274 580 135 517 q 213 700 230 653 q 197 789 197 747 q 265 943 197 883 q 441 1004 333 1004 q 613 946 549 1004 q 677 791 677 888 q 626 647 677 710 q 471 531 575 583 l 615 292 q 662 371 644 330 q 689 458 680 412 l 824 458 q 777 301 810 372 q 688 173 743 230 l 795 0 l 620 0 l 577 70 "},"":{"x_min":-25,"x_max":786,"ha":775,"o":"m -25 363 l 4 431 l 104 431 q 108 480 104 449 q 115 529 111 510 l 12 529 l 41 598 l 129 598 q 279 876 175 773 q 520 979 384 979 q 714 901 643 979 q 786 688 786 823 l 786 677 l 636 677 l 636 693 q 604 812 636 774 q 507 851 572 851 q 378 783 434 851 q 292 598 322 716 l 622 598 l 589 529 l 279 529 q 272 493 275 515 q 265 431 269 471 l 547 431 l 516 363 l 261 363 l 261 329 q 294 156 261 209 q 401 103 328 103 q 511 147 467 103 q 580 288 555 192 l 733 288 q 608 51 695 131 q 390 -29 522 -29 q 177 74 254 -29 q 100 362 101 177 l -25 363 "},"˝":{"x_min":278,"x_max":729,"ha":694,"o":"m 588 1068 l 729 1068 l 530 825 l 459 825 l 588 1068 m 381 1068 l 519 1068 l 343 825 l 278 825 l 381 1068 "},"I":{"x_min":11,"x_max":381,"ha":392,"o":"m 209 999 l 381 999 l 180 0 l 11 0 l 209 999 "},"G":{"x_min":58,"x_max":983,"ha":1061,"o":"m 983 670 l 818 670 q 752 823 813 768 q 585 878 691 878 q 439 844 503 878 q 327 740 376 810 q 255 585 281 674 q 229 404 229 496 q 299 191 229 268 q 492 114 370 114 q 684 187 602 114 q 797 385 766 260 l 509 385 l 536 517 l 981 517 l 881 0 l 762 0 l 768 107 q 630 5 709 39 q 455 -28 552 -28 q 165 89 272 -28 q 58 409 58 207 q 101 661 58 542 q 224 868 144 780 q 386 982 294 943 q 586 1022 479 1022 q 873 929 769 1022 q 983 670 977 836 "},"`":{"x_min":235,"x_max":516,"ha":694,"o":"m 235 1068 l 385 1068 l 516 825 l 435 825 l 235 1068 "},"·":{"x_min":102,"x_max":292,"ha":387,"o":"m 196 571 q 264 543 236 571 q 292 476 292 516 q 264 409 292 437 q 196 382 236 382 q 129 409 156 382 q 102 474 102 436 q 129 542 102 514 q 196 571 156 571 "},"¿":{"x_min":4,"x_max":637,"ha":750,"o":"m 347 706 l 489 706 q 450 564 484 623 q 323 440 415 506 q 307 429 317 437 q 168 237 168 332 q 206 140 168 176 q 313 105 245 105 q 431 153 385 105 q 487 288 477 201 l 637 288 q 539 56 625 139 q 311 -26 453 -26 q 87 46 170 -26 q 4 239 4 119 q 43 381 4 317 q 163 497 83 446 q 196 518 174 505 q 347 706 343 609 m 376 981 l 548 981 l 514 816 l 346 816 l 376 981 "},"ý":{"x_min":-41,"x_max":707,"ha":671,"o":"m 154 -46 l 31 733 l 189 733 l 261 130 l 542 733 l 707 733 l 241 -165 q 159 -267 205 -237 q 40 -297 113 -297 q -1 -294 18 -297 q -41 -286 -21 -291 l -17 -161 q 8 -165 -3 -164 q 30 -167 20 -167 q 81 -155 62 -167 q 117 -112 100 -143 l 154 -46 m 452 1068 l 613 1068 l 383 825 l 296 825 l 452 1068 "},"º":{"x_min":17,"x_max":562,"ha":616,"o":"m 443 797 q 409 890 443 856 q 315 924 375 924 q 187 856 239 924 q 135 690 135 789 q 167 594 135 628 q 259 561 200 561 q 391 627 339 561 q 443 797 443 693 m 323 1014 q 498 953 435 1014 q 562 787 562 893 q 476 560 562 649 q 256 471 391 471 q 80 530 144 471 q 17 696 17 590 q 103 924 17 834 q 323 1014 189 1014 "},"∞":{"x_min":144,"x_max":1013,"ha":1157,"o":"m 628 379 q 702 296 659 324 q 802 268 746 268 q 909 309 867 268 q 952 416 952 351 q 913 524 952 480 q 817 567 874 567 q 720 524 764 567 q 628 379 677 480 m 528 449 q 453 532 497 504 q 354 561 409 561 q 246 518 288 561 q 205 411 205 476 q 243 304 205 347 q 338 262 281 262 q 436 304 392 262 q 528 449 480 347 m 583 319 q 483 185 535 227 q 366 143 430 143 q 208 220 273 143 q 144 413 144 298 q 201 610 144 535 q 350 685 259 685 q 464 644 413 685 q 571 508 516 603 q 673 644 619 603 q 798 686 726 686 q 948 607 884 686 q 1013 415 1013 528 q 955 219 1013 294 q 806 144 898 144 q 693 183 743 144 q 583 319 642 222 "},";":{"x_min":-14,"x_max":349,"ha":419,"o":"m 66 171 l 240 171 l 205 4 q 129 -156 183 -101 q -14 -221 75 -211 l 2 -152 q 79 -106 50 -143 q 119 0 108 -68 l 30 0 l 66 171 m 172 717 l 349 717 l 314 543 l 138 543 l 172 717 "},"6":{"x_min":53,"x_max":746,"ha":775,"o":"m 548 336 q 506 458 548 414 q 394 503 465 503 q 259 439 311 503 q 207 273 207 375 q 247 140 207 186 q 366 94 288 94 q 495 163 443 94 q 548 336 548 232 m 746 707 l 597 707 q 565 809 595 774 q 480 845 536 845 q 330 773 389 845 q 241 555 271 701 q 331 612 282 593 q 437 631 380 631 q 631 552 558 631 q 705 347 705 474 q 607 76 705 181 q 353 -28 509 -28 q 129 63 206 -28 q 53 333 53 155 q 87 598 53 470 q 184 814 122 725 q 313 932 238 892 q 480 973 388 973 q 677 905 608 973 q 746 714 746 838 l 746 707 "},"n":{"x_min":-5,"x_max":720,"ha":796,"o":"m 709 483 l 614 0 l 458 0 l 551 471 q 558 507 556 492 q 560 535 560 523 q 534 597 560 575 q 461 620 508 620 q 305 557 367 620 q 221 378 243 495 l 147 0 l -5 0 l 137 733 l 278 733 l 256 620 q 377 717 313 684 q 509 750 440 750 q 665 703 611 750 q 720 568 720 656 q 717 529 720 550 q 709 483 715 508 "},"¤":{"x_min":-25,"x_max":786,"ha":775,"o":"m -25 363 l 4 431 l 104 431 q 108 480 104 449 q 115 529 111 510 l 12 529 l 41 598 l 129 598 q 279 876 175 773 q 520 979 384 979 q 714 901 643 979 q 786 688 786 823 l 786 677 l 636 677 l 636 693 q 604 812 636 774 q 507 851 572 851 q 378 783 434 851 q 292 598 322 716 l 622 598 l 589 529 l 279 529 q 272 493 275 515 q 265 431 269 471 l 547 431 l 516 363 l 261 363 l 261 329 q 294 156 261 209 q 401 103 328 103 q 511 147 467 103 q 580 288 555 192 l 733 288 q 608 51 695 131 q 390 -29 522 -29 q 177 74 254 -29 q 100 362 101 177 l -25 363 "},"∂":{"x_min":62,"x_max":670,"ha":729,"o":"m 513 433 q 530 559 524 503 q 536 659 536 616 q 517 778 536 741 q 454 815 497 815 q 355 775 412 815 q 272 735 297 735 q 229 753 247 735 q 210 793 210 770 q 263 871 210 838 q 399 905 317 905 q 594 797 518 905 q 670 511 670 689 q 568 132 670 281 q 313 -17 466 -17 q 133 58 204 -17 q 62 252 62 134 q 138 471 62 383 q 326 559 215 559 q 440 528 395 559 q 513 433 485 498 m 477 341 q 449 462 477 420 q 370 505 421 505 q 252 415 299 505 q 205 187 205 326 q 232 66 205 108 q 311 25 259 25 q 429 114 382 25 q 477 341 477 204 "},"p":{"x_min":-56,"x_max":755,"ha":831,"o":"m 173 121 l 94 -292 l -56 -292 l 140 733 l 279 733 l 257 619 q 360 718 302 685 q 488 751 417 751 q 683 670 612 751 q 755 446 755 589 q 728 267 755 353 q 652 116 701 181 q 535 14 601 49 q 395 -21 470 -21 q 262 15 318 -21 q 173 121 206 51 m 597 446 q 556 578 597 531 q 443 626 516 626 q 279 530 347 626 q 212 294 212 434 q 253 160 212 208 q 369 113 294 113 q 531 207 466 113 q 597 446 597 302 "},"‡":{"x_min":-18,"x_max":676,"ha":694,"o":"m 364 999 l 494 999 l 446 728 l 676 728 l 659 619 l 429 619 l 360 234 l 588 234 l 572 125 l 343 125 l 296 -144 l 161 -144 l 208 125 l -18 125 l 1 234 l 229 234 l 294 619 l 69 619 l 88 728 l 316 728 l 364 999 "},"√":{"x_min":45,"x_max":899,"ha":897,"o":"m 765 1136 l 899 1136 l 899 1061 l 825 1061 l 422 -28 l 367 -28 l 152 563 l 64 530 l 45 594 l 251 667 l 419 201 l 765 1136 "},"S":{"x_min":14,"x_max":808,"ha":823,"o":"m 808 712 l 650 712 q 600 840 648 795 q 463 885 552 885 q 340 849 386 885 q 295 757 295 814 q 326 672 295 707 q 459 587 357 636 q 674 444 615 513 q 734 281 734 376 q 632 57 734 142 q 366 -28 531 -28 q 108 57 203 -28 q 14 288 14 142 l 14 312 l 173 312 l 173 299 q 228 162 173 212 q 378 112 283 112 q 511 155 459 112 q 563 265 563 199 q 536 346 563 312 q 443 414 510 380 q 388 442 424 424 q 213 546 260 508 q 145 632 168 583 q 123 741 123 681 q 218 944 123 865 q 467 1023 313 1023 q 718 944 628 1023 q 808 726 808 866 l 808 712 "},"/":{"x_min":1,"x_max":426,"ha":428,"o":"m 337 1025 l 426 1025 l 88 -129 l 1 -129 l 337 1025 "},"y":{"x_min":-41,"x_max":707,"ha":671,"o":"m 154 -46 l 31 733 l 189 733 l 261 130 l 542 733 l 707 733 l 241 -165 q 159 -267 205 -237 q 40 -297 113 -297 q -1 -294 18 -297 q -41 -286 -21 -291 l -17 -161 q 8 -165 -3 -164 q 30 -167 20 -167 q 81 -155 62 -167 q 117 -112 100 -143 l 154 -46 "},"≈":{"x_min":121,"x_max":1038,"ha":1157,"o":"m 1038 401 l 1038 274 q 902 202 965 225 q 774 180 839 180 q 584 225 713 180 q 382 270 455 270 q 264 245 325 270 q 121 163 203 221 l 121 288 q 261 363 196 339 q 383 387 325 387 q 593 341 463 387 q 780 295 722 295 q 897 319 837 295 q 1038 401 957 344 m 1038 664 l 1038 539 q 901 465 964 488 q 774 443 838 443 q 585 489 714 443 q 382 535 456 535 q 266 511 326 535 q 121 427 207 487 l 121 553 q 260 627 194 602 q 383 652 325 652 q 593 606 464 652 q 775 560 722 560 q 898 583 837 560 q 1038 664 958 607 "},"g":{"x_min":-10,"x_max":786,"ha":831,"o":"m 409 620 q 246 531 309 620 q 184 299 184 442 q 225 167 184 213 q 344 122 266 122 q 506 210 445 122 q 568 446 568 299 q 526 574 568 529 q 409 620 484 620 m 509 96 q 416 18 470 45 q 298 -8 362 -8 q 98 74 171 -8 q 26 304 26 157 q 130 626 26 498 q 389 754 234 754 q 530 714 474 754 q 612 601 587 675 l 638 733 l 786 733 l 641 -5 q 524 -230 611 -160 q 276 -300 437 -300 q 64 -239 139 -300 q -10 -70 -10 -179 l 144 -70 l 144 -77 q 181 -150 144 -123 q 284 -177 219 -177 q 434 -117 384 -177 q 509 96 483 -58 "},"²":{"x_min":6,"x_max":482,"ha":511,"o":"m 135 462 l 437 462 l 420 381 l 6 381 q 50 507 10 453 q 184 619 90 561 q 209 634 193 624 q 372 804 372 731 q 346 862 372 840 q 276 885 320 885 q 198 856 227 885 q 162 774 168 828 l 59 774 q 127 915 69 866 q 286 964 184 964 q 427 918 372 964 q 482 800 482 872 q 444 696 482 741 q 294 586 406 650 q 176 512 207 537 q 135 462 145 487 "},"ë":{"x_min":25,"x_max":714,"ha":786,"o":"m 702 322 l 181 322 q 179 305 179 313 q 179 287 179 297 q 222 154 179 201 q 344 108 265 108 q 450 138 405 108 q 515 226 495 169 l 677 226 q 557 44 649 111 q 333 -22 465 -22 q 105 64 186 -22 q 25 308 25 151 q 132 629 25 504 q 406 754 239 754 q 631 670 549 754 q 714 442 714 587 q 711 387 714 417 q 702 322 708 357 m 553 435 q 554 445 554 439 q 555 461 555 451 q 516 583 555 539 q 409 628 477 628 q 274 578 327 628 q 199 435 220 529 l 553 435 m 500 1018 l 637 1018 l 606 865 l 472 865 l 500 1018 m 274 1018 l 410 1018 l 380 865 l 245 865 l 274 1018 "},"–":{"x_min":-35,"x_max":680,"ha":694,"o":"m -13 421 l 680 421 l 659 315 l -35 315 l -13 421 "},"ƒ":{"x_min":-4,"x_max":718,"ha":774,"o":"m 305 539 l 151 539 l 160 653 l 327 653 q 421 943 361 862 q 595 1025 481 1025 q 654 1017 623 1025 q 718 994 685 1010 l 687 870 q 647 887 665 881 q 616 893 629 893 q 534 847 561 893 q 486 653 507 802 l 645 653 l 637 539 l 467 539 l 393 108 q 293 -209 351 -128 q 124 -290 235 -290 q 57 -282 89 -290 q -4 -259 25 -275 l 27 -127 q 66 -145 46 -139 q 107 -152 86 -152 q 174 -114 149 -152 q 216 21 199 -77 l 305 539 "},"J":{"x_min":-37,"x_max":675,"ha":686,"o":"m 509 999 l 675 999 l 534 287 q 426 42 500 114 q 211 -29 352 -29 q 28 32 93 -29 q -37 203 -37 93 q -32 258 -37 226 q -19 341 -28 290 l 132 341 q 120 270 124 301 q 116 216 116 238 q 142 141 116 167 q 216 115 168 115 q 316 157 280 115 q 372 302 352 200 l 509 999 "},"Ã":{"x_min":-100,"x_max":792,"ha":865,"o":"m 506 830 l 277 386 l 570 386 l 506 830 m 430 999 l 630 999 l 792 0 l 626 0 l 590 244 l 205 244 l 77 0 l -100 0 l 430 999 m 698 1300 l 772 1300 q 716 1188 752 1224 q 626 1153 681 1153 q 600 1154 611 1153 q 578 1159 589 1155 l 527 1175 q 508 1180 518 1178 q 487 1182 498 1182 q 448 1167 463 1182 q 426 1125 433 1152 l 353 1125 q 406 1239 370 1200 q 496 1278 442 1278 q 522 1275 508 1278 q 550 1269 536 1273 l 601 1252 q 622 1247 614 1248 q 637 1246 630 1246 q 675 1259 660 1246 q 698 1300 689 1272 "},"©":{"x_min":77,"x_max":1081,"ha":1157,"o":"m 818 612 l 705 612 q 665 689 699 662 q 576 717 631 717 q 471 658 509 717 q 433 495 433 599 q 472 336 433 392 q 583 281 511 281 q 671 310 637 281 q 712 394 704 340 l 824 394 q 751 247 819 303 q 579 192 684 192 q 382 272 455 192 q 310 491 310 353 q 384 716 310 632 q 582 800 458 800 q 747 747 682 800 q 818 612 812 695 m 579 922 q 414 890 491 922 q 278 798 338 859 q 184 658 217 736 q 152 495 152 579 q 184 332 152 409 q 278 194 216 255 q 416 100 339 132 q 579 68 494 68 q 741 100 663 68 q 882 195 819 133 q 974 331 943 255 q 1006 495 1006 407 q 974 659 1006 582 q 882 797 942 737 q 744 890 821 858 q 579 922 666 922 m 578 997 q 772 959 681 997 q 935 849 863 922 q 1043 688 1006 778 q 1081 495 1081 597 q 1044 301 1081 391 q 936 142 1007 211 q 770 31 863 70 q 578 -7 678 -7 q 388 31 479 -7 q 225 141 297 69 q 114 304 152 213 q 77 495 77 395 q 115 685 77 594 q 226 851 154 777 q 386 960 298 923 q 578 997 475 997 "},"˘":{"x_min":254,"x_max":662,"ha":694,"o":"m 255 1046 l 330 1046 l 330 1033 q 353 967 330 988 q 429 946 377 946 q 524 970 486 946 q 583 1046 562 994 l 662 1046 q 574 897 634 947 q 420 847 513 847 q 295 888 336 847 q 254 1014 254 929 q 254 1033 254 1026 q 255 1046 254 1040 "},"≥":{"x_min":176,"x_max":982,"ha":1157,"o":"m 176 121 l 982 121 l 982 8 l 176 8 l 176 121 m 176 830 l 980 564 l 980 465 l 176 202 l 176 321 l 780 516 l 176 710 l 176 830 "},"D":{"x_min":8,"x_max":942,"ha":1004,"o":"m 344 855 l 201 140 l 381 140 q 554 166 489 140 q 664 252 618 192 q 739 402 713 316 q 766 587 766 489 q 704 790 766 725 q 509 855 642 855 l 344 855 m 206 999 l 521 999 q 837 895 732 999 q 942 581 942 791 q 902 343 942 456 q 791 151 863 231 q 625 34 718 69 q 368 0 532 0 l 8 0 l 206 999 "},"ÿ":{"x_min":-41,"x_max":707,"ha":671,"o":"m 154 -46 l 31 733 l 189 733 l 261 130 l 542 733 l 707 733 l 241 -165 q 159 -267 205 -237 q 40 -297 113 -297 q -1 -294 18 -297 q -41 -286 -21 -291 l -17 -161 q 8 -165 -3 -164 q 30 -167 20 -167 q 81 -155 62 -167 q 117 -112 100 -143 l 154 -46 m 485 1018 l 622 1018 l 591 865 l 457 865 l 485 1018 m 259 1018 l 395 1018 l 365 865 l 230 865 l 259 1018 "},"ł":{"x_min":-40,"x_max":406,"ha":359,"o":"m 201 999 l 354 999 l 278 609 l 357 655 l 406 572 l 254 488 l 160 0 l 5 0 l 87 416 l 8 372 l -40 454 l 111 539 l 201 999 "},"Ł":{"x_min":-52.890625,"x_max":706,"ha":775,"o":"m 214 999 l 379 999 l 305 617 l 546 758 l 600 665 l 278 479 l 211 146 l 706 146 l 678 0 l 18 0 l 97 401 l 1 344 l -52 437 l 124 539 l 214 999 "},"$":{"x_min":20,"x_max":737,"ha":775,"o":"m 408 400 l 347 99 l 362 99 q 486 142 440 99 q 532 258 532 186 q 503 340 532 307 q 408 400 474 374 m 428 854 l 425 854 q 305 811 349 854 q 261 699 261 769 q 286 625 261 656 q 369 573 312 595 l 428 854 m 466 1050 l 536 1050 l 521 969 q 682 885 627 950 q 737 712 737 820 l 737 693 l 601 693 q 573 798 598 760 q 496 846 548 835 l 436 548 q 624 434 567 498 q 681 276 681 371 q 585 56 681 137 q 326 -24 490 -24 l 322 -24 l 299 -143 l 229 -143 l 252 -17 q 78 76 137 6 q 20 258 20 146 l 20 281 l 163 281 q 191 161 163 203 q 277 107 219 119 l 343 428 q 171 539 226 474 q 117 696 117 604 q 203 898 117 821 q 430 975 289 975 l 451 975 l 466 1050 "},"w":{"x_min":37,"x_max":1069,"ha":1039,"o":"m 37 733 l 185 733 l 238 187 l 467 733 l 626 733 l 655 185 l 907 733 l 1069 733 l 702 0 l 545 0 l 515 531 l 283 0 l 124 0 l 37 733 "},"\\":{"x_min":94,"x_max":330,"ha":428,"o":"m 94 1025 l 182 1025 l 330 -129 l 242 -129 l 94 1025 "},"∫":{"x_min":34,"x_max":728,"ha":760,"o":"m 220 -174 q 302 295 292 -174 q 305 378 304 350 q 381 898 313 743 q 593 1053 449 1053 q 690 1022 652 1053 q 728 946 728 991 q 704 882 728 905 q 640 859 681 859 q 590 874 610 859 q 562 918 570 889 q 558 949 560 930 q 541 977 556 976 q 460 559 472 977 q 455 391 457 450 q 434 101 448 201 q 393 -64 420 1 q 299 -203 356 -156 q 167 -251 242 -251 q 71 -221 108 -251 q 34 -145 34 -191 q 58 -79 34 -102 q 125 -56 82 -56 q 170 -68 151 -56 q 197 -104 188 -80 q 204 -144 202 -115 q 220 -174 206 -174 "},"Ì":{"x_min":11,"x_max":418,"ha":392,"o":"m 209 999 l 381 999 l 180 0 l 11 0 l 209 999 m 137 1337 l 287 1337 l 418 1094 l 337 1094 l 137 1337 "},"Ç":{"x_min":60,"x_max":963,"ha":1000,"o":"m 963 664 l 800 664 q 737 821 797 765 q 573 878 677 878 q 429 840 493 878 q 318 729 365 802 q 252 578 275 660 q 230 408 230 496 q 295 194 230 269 q 481 119 360 119 q 653 178 581 119 q 759 350 725 238 l 921 350 q 763 72 885 172 q 463 -28 641 -28 q 166 89 272 -28 q 60 417 60 206 q 95 640 60 532 q 196 833 130 748 q 366 973 268 926 q 585 1021 464 1021 q 857 928 759 1021 q 963 664 956 835 m 433 0 l 492 0 l 469 -66 l 478 -66 q 589 -95 551 -66 q 628 -179 628 -124 q 583 -285 628 -246 q 461 -325 539 -325 q 374 -316 422 -325 q 262 -287 325 -307 l 289 -215 q 372 -238 334 -231 q 442 -246 410 -246 q 502 -231 482 -246 q 522 -186 522 -216 q 493 -144 522 -156 q 386 -133 465 -133 l 433 0 "},"C":{"x_min":60,"x_max":963,"ha":1000,"o":"m 963 664 l 800 664 q 737 821 797 765 q 573 878 677 878 q 429 840 493 878 q 318 729 365 802 q 252 578 275 660 q 230 408 230 496 q 295 194 230 269 q 481 119 360 119 q 653 178 581 119 q 759 350 725 238 l 921 350 q 763 72 885 172 q 463 -28 641 -28 q 166 89 272 -28 q 60 417 60 206 q 95 640 60 532 q 196 833 130 748 q 366 973 268 926 q 585 1021 464 1021 q 857 928 759 1021 q 963 664 956 835 "},"!":{"x_min":45,"x_max":406,"ha":452,"o":"m 78 174 l 253 174 l 219 0 l 45 0 l 78 174 m 234 999 l 406 999 l 222 277 l 133 277 l 234 999 "},"ç":{"x_min":26,"x_max":714,"ha":783,"o":"m 714 482 l 559 482 q 520 586 559 548 q 413 625 481 625 q 250 531 317 625 q 184 301 184 438 q 225 161 184 210 q 345 113 267 113 q 458 154 409 113 q 529 268 508 196 l 684 268 q 564 55 658 133 q 333 -22 469 -22 q 105 64 184 -22 q 26 311 26 150 q 138 628 26 503 q 422 754 250 754 q 634 682 558 754 q 714 482 710 611 m 306 0 l 365 0 l 342 -66 l 351 -66 q 462 -95 424 -66 q 501 -179 501 -124 q 456 -285 501 -246 q 334 -325 412 -325 q 247 -316 295 -325 q 135 -287 198 -307 l 162 -215 q 245 -238 207 -231 q 315 -246 283 -246 q 375 -231 355 -246 q 395 -186 395 -216 q 366 -144 395 -156 q 259 -133 338 -133 l 306 0 "},"È":{"x_min":8,"x_max":831,"ha":831,"o":"m 205 999 l 831 999 l 803 853 l 341 853 l 287 589 l 728 589 l 698 446 l 259 446 l 201 144 l 696 144 l 667 0 l 8 0 l 205 999 m 356 1337 l 506 1337 l 637 1094 l 556 1094 l 356 1337 "},"X":{"x_min":-85,"x_max":812,"ha":742,"o":"m 56 999 l 231 999 l 387 648 l 627 999 l 812 999 l 458 503 l 695 0 l 520 0 l 353 369 l 99 0 l -85 0 l 286 511 l 56 999 "},"ô":{"x_min":22,"x_max":750,"ha":822,"o":"m 590 446 q 545 578 590 531 q 419 626 500 626 q 248 529 318 626 q 179 292 179 433 q 222 157 179 205 q 345 110 266 110 q 521 204 453 110 q 590 446 590 298 m 430 755 q 664 669 579 755 q 750 433 750 583 q 635 106 750 233 q 341 -21 520 -21 q 107 64 192 -21 q 22 300 22 150 q 137 626 22 498 q 430 755 252 755 m 421 1068 l 561 1068 l 653 825 l 572 825 l 482 970 l 329 825 l 242 825 l 421 1068 "},"đ":{"x_min":22,"x_max":920.765625,"ha":838,"o":"m 568 440 q 526 572 568 525 q 409 619 484 619 q 245 523 312 619 q 179 283 179 427 q 220 152 179 199 q 336 106 261 106 q 502 200 436 106 q 568 440 568 295 m 686 999 l 836 999 l 817 906 l 920 906 l 903 816 l 800 816 l 642 0 l 503 0 l 522 106 q 416 8 472 39 q 290 -22 361 -22 q 92 60 163 -22 q 22 287 22 142 q 126 617 22 483 q 382 751 231 751 q 520 715 464 751 q 608 608 576 679 l 649 816 l 414 816 l 433 906 l 667 906 l 686 999 "},"}":{"x_min":102,"x_max":585,"ha":694,"o":"m 102 1002 l 132 1002 q 254 994 211 1002 q 328 968 298 986 q 383 903 367 945 q 399 764 399 861 l 399 596 q 434 459 399 499 q 555 419 469 419 q 570 420 559 419 q 585 422 580 422 l 585 301 q 570 301 580 301 q 555 302 560 302 q 434 262 470 302 q 399 125 399 222 l 399 -42 q 383 -181 399 -140 q 328 -246 367 -223 q 255 -272 299 -264 q 132 -280 211 -280 l 102 -280 l 102 -159 q 117 -159 107 -159 q 132 -160 128 -160 q 233 -131 207 -160 q 260 -13 260 -103 l 260 148 q 290 296 260 252 q 399 360 321 341 q 290 423 321 379 q 260 573 260 468 l 260 736 q 234 854 260 826 q 134 882 208 882 q 118 881 129 882 q 102 881 107 881 l 102 1002 "},"â":{"x_min":12,"x_max":676,"ha":775,"o":"m 488 360 q 361 334 440 341 q 258 321 282 327 q 185 277 210 307 q 160 203 160 247 q 189 127 160 155 q 271 99 219 99 q 420 165 365 99 q 488 360 474 232 m 667 485 l 612 205 q 606 170 607 182 q 605 149 605 158 q 616 111 605 123 q 654 99 628 99 l 666 99 l 646 -1 q 609 -9 629 -6 q 566 -12 589 -12 q 481 9 510 -12 q 452 73 452 30 l 452 85 q 355 6 409 32 q 235 -20 302 -20 q 72 37 132 -20 q 12 191 12 94 q 77 360 12 296 q 266 440 142 424 q 357 449 300 444 q 527 554 527 465 q 496 610 527 592 q 398 628 466 628 q 284 604 321 628 q 235 523 248 580 l 86 523 q 181 693 104 637 q 401 750 259 750 q 606 702 536 750 q 676 565 676 655 q 673 526 676 546 q 667 485 671 506 m 393 1068 l 533 1068 l 625 825 l 544 825 l 454 970 l 301 825 l 214 825 l 393 1068 "},"ø":{"x_min":-8.140625,"x_max":769.015625,"ha":822,"o":"m 575 528 l 225 152 q 274 117 245 129 q 340 106 304 106 q 517 200 446 106 q 589 437 589 295 q 585 485 589 462 q 575 528 582 507 m 539 582 q 489 614 517 604 q 421 625 460 625 q 247 531 317 625 q 177 301 177 438 q 180 254 177 276 q 191 209 183 232 l 539 582 m 718 781 l 769 735 l 684 643 q 732 548 716 601 q 748 431 748 496 q 633 105 748 231 q 338 -21 519 -21 q 219 -4 270 -21 q 130 46 167 12 l 40 -51 l -8 -4 l 81 95 q 36 185 51 135 q 22 298 22 234 q 137 627 22 500 q 433 755 252 755 q 547 739 497 755 q 636 692 596 724 l 718 781 "},"Ä":{"x_min":-100,"x_max":792,"ha":865,"o":"m 506 830 l 277 386 l 570 386 l 506 830 m 430 999 l 630 999 l 792 0 l 626 0 l 590 244 l 205 244 l 77 0 l -100 0 l 430 999 m 621 1287 l 758 1287 l 727 1134 l 593 1134 l 621 1287 m 395 1287 l 531 1287 l 501 1134 l 366 1134 l 395 1287 "},"‰":{"x_min":47,"x_max":1718,"ha":1767,"o":"m 1473 360 q 1384 324 1420 360 q 1349 235 1349 289 q 1385 145 1349 182 q 1473 109 1421 109 q 1560 146 1524 109 q 1597 235 1597 184 q 1560 323 1597 287 q 1473 360 1524 360 m 1473 481 q 1646 408 1574 481 q 1718 234 1718 336 q 1646 60 1718 133 q 1473 -12 1574 -12 q 1299 59 1370 -12 q 1228 234 1228 131 q 1299 409 1228 337 q 1473 481 1370 481 m 890 360 q 801 324 837 360 q 766 235 766 289 q 802 146 766 183 q 890 109 838 109 q 977 146 940 109 q 1014 235 1014 184 q 977 323 1014 287 q 890 360 941 360 m 890 481 q 1063 408 991 481 q 1135 234 1135 336 q 1063 60 1135 133 q 890 -12 991 -12 q 716 59 787 -12 q 645 234 645 131 q 716 409 645 337 q 890 481 787 481 m 292 835 q 203 798 239 835 q 168 709 168 762 q 203 620 168 656 q 292 584 239 584 q 380 620 344 584 q 416 709 416 657 q 380 798 416 762 q 292 835 344 835 m 292 956 q 465 883 393 956 q 537 709 537 811 q 465 535 537 607 q 292 463 393 463 q 117 534 188 463 q 47 709 47 605 q 117 884 47 813 q 292 956 188 956 m 837 971 l 931 971 l 344 -27 l 249 -27 l 837 971 "},"N":{"x_min":8,"x_max":982,"ha":989,"o":"m 206 999 l 372 999 l 673 254 l 819 999 l 982 999 l 784 0 l 622 0 l 317 743 l 170 0 l 8 0 l 206 999 "},"—":{"x_min":-35,"x_max":1375,"ha":1389,"o":"m -35 315 l -13 421 l 1375 421 l 1353 315 l -35 315 "},"2":{"x_min":9,"x_max":729,"ha":775,"o":"m 204 134 l 664 134 l 637 0 l 9 0 q 77 211 16 120 q 281 397 138 302 q 327 428 296 407 q 564 705 564 586 q 524 804 564 767 q 419 841 485 841 q 299 794 344 841 q 243 657 254 747 l 88 657 q 192 892 104 811 q 433 973 279 973 q 646 897 564 973 q 729 700 729 821 q 672 526 729 602 q 445 343 615 450 q 264 216 309 258 q 204 134 219 175 "},"ü":{"x_min":28,"x_max":753,"ha":796,"o":"m 133 733 l 288 733 l 195 262 q 193 251 195 259 q 187 200 187 217 q 213 136 187 159 q 286 114 239 114 q 441 175 379 114 q 526 355 502 237 l 601 733 l 753 733 l 609 0 l 469 0 l 490 112 q 371 17 433 49 q 240 -14 308 -14 q 81 31 135 -14 q 28 166 28 77 q 30 203 28 182 q 37 249 32 224 l 133 733 m 548 1018 l 685 1018 l 654 865 l 520 865 l 548 1018 m 322 1018 l 458 1018 l 428 865 l 293 865 l 322 1018 "},"":{"x_min":11,"x_max":736,"ha":734,"o":"m 387 0 l 583 999 l 736 999 l 540 0 l 387 0 m 11 0 l 128 616 l 27 616 l 48 733 l 151 733 l 170 831 q 237 966 188 923 q 373 1010 286 1010 q 412 1007 389 1010 q 465 1001 435 1005 l 442 873 q 410 878 424 876 q 385 880 396 880 q 340 864 355 880 q 315 792 325 848 l 304 733 l 418 733 l 398 616 l 281 616 l 164 0 l 11 0 "},"Ó":{"x_min":56,"x_max":1018,"ha":1076,"o":"m 848 594 q 778 805 848 730 q 583 880 709 880 q 444 848 508 880 q 336 757 380 816 q 254 594 284 688 q 224 405 224 500 q 293 191 224 267 q 487 116 362 116 q 622 146 559 116 q 730 234 684 177 q 816 399 785 303 q 848 594 848 495 m 599 1026 q 906 909 794 1026 q 1018 587 1018 792 q 974 343 1018 461 q 849 134 930 225 q 684 13 780 55 q 474 -28 588 -28 q 167 87 279 -28 q 56 405 56 202 q 100 653 56 533 q 224 862 144 773 q 392 983 295 941 q 599 1026 490 1026 m 681 1337 l 842 1337 l 612 1094 l 525 1094 l 681 1337 "},"˜":{"x_min":228,"x_max":647,"ha":694,"o":"m 573 1031 l 647 1031 q 591 919 627 955 q 501 884 556 884 q 475 885 486 884 q 453 890 464 886 l 402 906 q 383 911 393 909 q 362 913 373 913 q 323 898 338 913 q 301 856 308 883 l 228 856 q 281 970 245 931 q 371 1009 317 1009 q 397 1006 383 1009 q 425 1000 411 1004 l 476 983 q 497 978 489 979 q 512 977 505 977 q 550 990 535 977 q 573 1031 564 1003 "},"ˇ":{"x_min":252,"x_max":663,"ha":694,"o":"m 252 1068 l 330 1068 l 421 922 l 575 1068 l 663 1068 l 482 825 l 343 825 l 252 1068 "},"Ÿ":{"x_min":37,"x_max":830,"ha":742,"o":"m 37 999 l 213 999 l 374 559 l 646 999 l 830 999 l 432 385 l 360 0 l 195 0 l 271 400 l 37 999 m 573 1287 l 710 1287 l 679 1134 l 545 1134 l 573 1287 m 347 1287 l 483 1287 l 453 1134 l 318 1134 l 347 1287 "},"€":{"x_min":-25,"x_max":786,"ha":775,"o":"m -25 363 l 4 431 l 104 431 q 108 480 104 449 q 115 529 111 510 l 12 529 l 41 598 l 129 598 q 279 876 175 773 q 520 979 384 979 q 714 901 643 979 q 786 688 786 823 l 786 677 l 636 677 l 636 693 q 604 812 636 774 q 507 851 572 851 q 378 783 434 851 q 292 598 322 716 l 622 598 l 589 529 l 279 529 q 272 493 275 515 q 265 431 269 471 l 547 431 l 516 363 l 261 363 l 261 329 q 294 156 261 209 q 401 103 328 103 q 511 147 467 103 q 580 288 555 192 l 733 288 q 608 51 695 131 q 390 -29 522 -29 q 177 74 254 -29 q 100 362 101 177 l -25 363 "},"ß":{"x_min":-3,"x_max":746,"ha":796,"o":"m 594 537 q 679 454 651 504 q 707 334 707 403 q 608 80 707 177 q 350 -16 510 -16 q 300 -11 326 -16 q 245 1 274 -6 l 272 133 q 313 122 293 125 q 351 119 333 119 q 493 179 438 119 q 549 334 549 239 q 501 452 549 413 q 358 491 454 491 l 343 491 l 368 605 q 382 604 374 604 q 405 604 390 604 q 542 644 494 604 q 590 758 590 684 q 554 846 590 813 q 459 879 518 879 q 353 839 395 879 q 295 723 311 799 l 151 0 l -3 0 l 142 728 q 251 940 170 870 q 467 1010 332 1010 q 669 941 592 1010 q 746 763 746 873 q 707 625 746 684 q 594 537 668 567 "},"s":{"x_min":-4,"x_max":633,"ha":688,"o":"m 633 501 l 489 501 q 451 599 484 567 q 351 632 417 632 q 266 611 297 632 q 236 554 236 590 q 349 445 236 501 q 387 426 373 433 q 549 318 512 362 q 586 212 586 274 q 505 40 586 104 q 288 -24 425 -24 q 74 44 152 -24 q -4 233 -4 113 l -4 253 l 142 253 q 181 131 142 172 q 297 91 220 91 q 396 117 361 91 q 431 190 431 143 q 404 249 431 222 q 278 324 378 275 q 116 430 152 386 q 81 539 81 474 q 155 693 81 634 q 352 753 230 753 q 557 689 482 753 q 633 515 633 625 l 633 501 "},"?":{"x_min":92,"x_max":725,"ha":750,"o":"m 212 165 l 381 165 l 350 0 l 180 0 l 212 165 m 381 282 l 239 282 q 278 423 243 365 q 405 547 313 482 q 426 562 412 552 q 561 750 561 657 q 522 848 561 812 q 415 884 483 884 q 297 835 343 884 q 242 700 252 787 l 92 700 q 189 930 103 848 q 419 1013 276 1013 q 642 940 559 1013 q 725 746 725 867 q 683 602 725 666 q 556 483 642 538 q 520 460 544 475 q 381 282 383 376 "},"c":{"x_min":26,"x_max":714,"ha":783,"o":"m 714 482 l 559 482 q 520 586 559 548 q 413 625 481 625 q 250 531 317 625 q 184 301 184 438 q 225 161 184 210 q 345 113 267 113 q 458 154 409 113 q 529 268 508 196 l 684 268 q 564 55 658 133 q 333 -22 469 -22 q 105 64 184 -22 q 26 311 26 150 q 138 628 26 503 q 422 754 250 754 q 634 682 558 754 q 714 482 710 611 "},"¶":{"x_min":37,"x_max":658,"ha":694,"o":"m 658 1003 l 658 936 l 579 936 l 579 0 l 490 0 l 490 936 l 376 936 l 376 0 l 287 0 l 287 532 q 105 600 173 536 q 37 766 37 664 q 109 938 37 873 q 301 1003 182 1003 l 658 1003 "},"•":{"x_min":208,"x_max":609,"ha":819,"o":"m 208 516 q 266 657 208 599 q 409 716 325 716 q 550 657 491 716 q 609 516 609 598 q 549 374 609 433 q 407 315 490 315 q 266 373 324 315 q 208 516 208 432 "},"(":{"x_min":72,"x_max":544,"ha":488,"o":"m 421 997 l 544 997 q 300 588 378 790 q 223 164 223 386 q 242 -56 223 53 q 301 -279 262 -167 l 199 -279 q 103 -7 135 -138 q 72 247 72 123 q 156 622 72 440 q 421 997 241 803 "},"◊":{"x_min":4,"x_max":682,"ha":686,"o":"m 343 955 l 81 401 l 343 -158 l 604 401 l 343 955 m 343 1121 l 682 401 l 343 -324 l 4 401 l 343 1121 "},"­":{"x_min":14,"x_max":378,"ha":440,"o":"m 43 438 l 378 438 l 350 298 l 14 298 l 43 438 "},":":{"x_min":31,"x_max":350,"ha":419,"o":"m 64 172 l 241 172 l 207 0 l 31 0 l 64 172 m 173 717 l 350 717 l 315 543 l 139 543 l 173 717 "},"Û":{"x_min":69,"x_max":975,"ha":982,"o":"m 204 999 l 372 999 l 245 359 q 238 311 240 328 q 236 282 236 294 q 285 165 236 206 q 427 124 335 124 q 596 178 535 124 q 680 351 657 233 l 810 999 l 975 999 l 845 340 q 702 65 808 156 q 416 -26 596 -26 q 163 55 258 -26 q 69 271 69 137 q 73 327 69 294 q 85 404 77 360 l 204 999 m 579 1337 l 719 1337 l 811 1094 l 730 1094 l 640 1239 l 487 1094 l 400 1094 l 579 1337 "},"V":{"x_min":52,"x_max":864,"ha":777,"o":"m 52 999 l 215 999 l 335 213 l 698 999 l 864 999 l 387 0 l 221 0 l 52 999 "}," ":{"x_min":0,"x_max":0,"ha":775},"@":{"x_min":66,"x_max":1322,"ha":1389,"o":"m 795 192 q 708 105 758 133 q 589 78 659 78 q 431 136 486 78 q 377 306 377 195 q 470 574 377 464 q 696 684 564 684 q 797 660 757 684 q 864 587 838 637 l 902 660 l 1006 660 l 906 262 q 905 254 905 259 q 900 229 900 235 q 918 188 900 203 q 966 172 936 172 q 1039 193 1000 172 q 1110 250 1077 213 q 1185 370 1159 302 q 1211 517 1211 439 q 1084 795 1211 688 q 752 903 957 903 q 578 881 658 903 q 432 818 498 860 q 243 620 309 741 q 177 353 177 500 q 319 14 177 141 q 698 -112 461 -112 q 917 -78 810 -112 q 1115 17 1024 -45 l 1160 -49 q 944 -165 1059 -126 q 703 -204 829 -204 q 465 -171 573 -204 q 274 -75 357 -138 q 117 111 169 4 q 66 354 66 218 q 101 566 66 465 q 205 751 136 667 q 444 935 304 872 q 756 999 584 999 q 970 968 868 999 q 1142 881 1071 937 q 1277 721 1232 812 q 1322 518 1322 631 q 1277 313 1322 408 q 1152 152 1233 218 q 1050 95 1105 115 q 936 76 995 76 q 830 104 864 76 q 795 189 795 131 l 795 192 m 835 479 q 794 567 826 536 q 710 599 761 599 q 563 511 624 599 q 502 301 502 424 q 532 198 502 234 q 620 163 563 163 q 730 208 681 163 q 798 325 780 253 l 835 479 "},"¾":{"x_min":11,"x_max":1174,"ha":1209,"o":"m 1052 432 l 820 200 l 1000 200 l 1052 432 m 1068 532 l 1169 532 l 1096 200 l 1174 200 l 1158 129 l 1080 129 l 1051 0 l 955 0 l 984 129 l 722 129 l 736 208 l 1068 532 m 858 977 l 953 977 l 351 -27 l 256 -27 l 858 977 m 351 691 q 406 646 388 673 q 425 579 425 618 q 363 452 425 501 q 204 403 302 403 q 61 443 112 403 q 11 558 11 484 q 11 575 11 568 q 12 590 11 581 l 109 590 q 107 578 108 584 q 107 560 107 572 q 131 496 107 518 q 204 475 155 475 q 291 504 258 475 q 325 583 325 534 q 298 641 325 621 q 221 661 271 661 l 201 661 l 216 727 q 225 726 220 727 q 233 726 230 726 q 326 749 294 726 q 359 816 359 772 q 334 870 359 850 q 267 890 310 890 q 196 865 222 890 q 163 793 169 841 l 65 793 q 131 918 77 875 q 276 961 185 961 q 408 922 359 961 q 457 820 457 884 q 429 741 457 774 q 351 691 401 707 "},"i":{"x_min":-3,"x_max":347,"ha":343,"o":"m 141 732 l 294 732 l 151 0 l -3 0 l 141 732 m 194 999 l 347 999 l 316 842 l 164 842 l 194 999 "},"≤":{"x_min":176,"x_max":980,"ha":1157,"o":"m 176 121 l 980 121 l 980 8 l 176 8 l 176 121 m 980 830 l 980 710 l 377 516 l 980 321 l 980 202 l 176 465 l 176 564 l 980 830 "},"m":{"x_min":-5,"x_max":1109,"ha":1185,"o":"m 672 616 q 790 714 729 682 q 917 747 850 747 q 1057 699 1005 747 q 1109 570 1109 651 q 1106 531 1109 550 q 1100 494 1104 512 l 1001 0 l 843 0 l 946 507 q 949 526 948 517 q 951 544 951 536 q 927 596 951 577 q 864 615 904 615 q 731 554 790 615 q 653 394 672 493 l 572 0 l 418 0 l 519 509 q 523 530 522 521 q 524 547 524 539 q 502 597 524 579 q 440 615 480 615 q 308 556 367 615 q 230 405 249 497 l 145 0 l -5 0 l 139 733 l 281 733 l 254 613 q 372 714 310 682 q 504 747 433 747 q 622 713 580 747 q 672 616 665 680 "},"ž":{"x_min":-50,"x_max":647,"ha":656,"o":"m 71 733 l 647 733 l 623 614 l 176 132 l 572 132 l 547 0 l -50 0 l -27 120 l 416 603 l 47 603 l 71 733 m 232 1068 l 310 1068 l 401 922 l 555 1068 l 643 1068 l 462 825 l 323 825 l 232 1068 "},"á":{"x_min":12,"x_max":676,"ha":775,"o":"m 488 360 q 361 334 440 341 q 258 321 282 327 q 185 277 210 307 q 160 203 160 247 q 189 127 160 155 q 271 99 219 99 q 420 165 365 99 q 488 360 474 232 m 667 485 l 612 205 q 606 170 607 182 q 605 149 605 158 q 616 111 605 123 q 654 99 628 99 l 666 99 l 646 -1 q 609 -9 629 -6 q 566 -12 589 -12 q 481 9 510 -12 q 452 73 452 30 l 452 85 q 355 6 409 32 q 235 -20 302 -20 q 72 37 132 -20 q 12 191 12 94 q 77 360 12 296 q 266 440 142 424 q 357 449 300 444 q 527 554 527 465 q 496 610 527 592 q 398 628 466 628 q 284 604 321 628 q 235 523 248 580 l 86 523 q 181 693 104 637 q 401 750 259 750 q 606 702 536 750 q 676 565 676 655 q 673 526 676 546 q 667 485 671 506 m 474 1068 l 635 1068 l 405 825 l 318 825 l 474 1068 "},"×":{"x_min":195,"x_max":977,"ha":1157,"o":"m 273 805 l 584 493 l 897 805 l 977 725 l 665 413 l 977 102 l 897 22 l 584 334 l 273 22 l 195 102 l 505 413 l 195 725 l 273 805 "},"İ":{"x_min":11,"x_max":426,"ha":392,"o":"m 209 999 l 381 999 l 180 0 l 11 0 l 209 999 m 281 1291 l 426 1291 l 394 1130 l 251 1130 l 281 1291 "},"K":{"x_min":11,"x_max":946,"ha":864,"o":"m 208 999 l 372 999 l 282 540 l 741 999 l 946 999 l 519 580 l 815 0 l 638 0 l 402 469 l 238 314 l 176 0 l 11 0 l 208 999 "},"7":{"x_min":98,"x_max":778,"ha":775,"o":"m 125 943 l 778 943 l 754 819 q 444 398 554 599 q 305 0 334 196 l 138 0 q 271 385 161 184 q 581 809 381 586 l 98 809 l 125 943 "},"¨":{"x_min":241,"x_max":633,"ha":694,"o":"m 496 1018 l 633 1018 l 602 865 l 468 865 l 496 1018 m 270 1018 l 406 1018 l 376 865 l 241 865 l 270 1018 "},"Y":{"x_min":37,"x_max":830,"ha":742,"o":"m 37 999 l 213 999 l 374 559 l 646 999 l 830 999 l 432 385 l 360 0 l 195 0 l 271 400 l 37 999 "},"E":{"x_min":8,"x_max":831,"ha":831,"o":"m 205 999 l 831 999 l 803 853 l 341 853 l 287 589 l 728 589 l 698 446 l 259 446 l 201 144 l 696 144 l 667 0 l 8 0 l 205 999 "},"Ô":{"x_min":56,"x_max":1018,"ha":1076,"o":"m 848 594 q 778 805 848 730 q 583 880 709 880 q 444 848 508 880 q 336 757 380 816 q 254 594 284 688 q 224 405 224 500 q 293 191 224 267 q 487 116 362 116 q 622 146 559 116 q 730 234 684 177 q 816 399 785 303 q 848 594 848 495 m 599 1026 q 906 909 794 1026 q 1018 587 1018 792 q 974 343 1018 461 q 849 134 930 225 q 684 13 780 55 q 474 -28 588 -28 q 167 87 279 -28 q 56 405 56 202 q 100 653 56 533 q 224 862 144 773 q 392 983 295 941 q 599 1026 490 1026 m 600 1337 l 740 1337 l 832 1094 l 751 1094 l 661 1239 l 508 1094 l 421 1094 l 600 1337 "},"Ï":{"x_min":11,"x_max":535,"ha":392,"o":"m 209 999 l 381 999 l 180 0 l 11 0 l 209 999 m 398 1287 l 535 1287 l 504 1134 l 370 1134 l 398 1287 m 172 1287 l 308 1287 l 278 1134 l 143 1134 l 172 1287 "},"‹":{"x_min":20,"x_max":312,"ha":335,"o":"m 312 616 l 282 475 l 113 365 l 233 238 l 207 115 l 20 313 l 45 438 l 312 616 "},"±":{"x_min":172,"x_max":985,"ha":1157,"o":"m 172 124 l 985 124 l 985 10 l 172 10 l 172 124 m 521 819 l 636 819 l 636 592 l 985 592 l 985 480 l 636 480 l 636 253 l 521 253 l 521 480 l 172 480 l 172 592 l 521 592 l 521 819 "},"ì":{"x_min":-3,"x_max":341,"ha":343,"o":"m 141 732 l 294 732 l 151 0 l -3 0 l 141 732 m 60 1068 l 210 1068 l 341 825 l 260 825 l 60 1068 "},"|":{"x_min":288,"x_max":409,"ha":694,"o":"m 288 1061 l 409 1061 l 409 -328 l 288 -328 l 288 1061 "},"§":{"x_min":18,"x_max":620.71875,"ha":694,"o":"m 269 584 q 208 548 229 571 q 187 491 187 524 q 202 443 187 466 q 262 385 218 420 l 397 280 q 458 319 439 296 q 478 376 478 342 q 460 425 478 400 q 409 475 443 449 l 269 584 m 620 779 l 483 779 q 459 860 483 834 q 385 887 435 887 q 314 864 341 887 q 287 806 287 842 q 310 746 287 776 q 388 674 334 715 l 497 590 q 588 495 558 544 q 618 391 618 445 q 579 278 618 326 q 467 205 541 230 q 502 145 490 177 q 514 73 514 112 q 442 -85 514 -21 q 262 -149 370 -149 q 80 -93 142 -149 q 18 68 18 -37 l 18 76 l 155 76 q 186 1 159 26 q 262 -24 213 -24 q 340 2 310 -24 q 371 68 371 28 q 294 176 371 115 l 291 178 l 157 285 q 72 375 98 333 q 47 467 47 418 q 83 575 47 529 q 194 652 120 621 q 158 718 169 684 q 146 789 146 752 q 215 945 146 883 q 385 1008 283 1008 q 559 954 499 1008 q 620 799 620 900 l 620 779 "},"q":{"x_min":24,"x_max":786,"ha":831,"o":"m 412 624 q 248 528 314 624 q 183 287 183 432 q 226 160 183 206 q 345 114 270 114 q 509 208 443 114 q 575 444 575 302 q 532 577 575 530 q 412 624 490 624 m 508 88 q 413 9 467 36 q 291 -18 358 -18 q 95 64 167 -18 q 24 289 24 147 q 51 467 24 380 q 129 622 78 554 q 244 722 179 687 q 384 757 310 757 q 531 720 474 757 q 617 607 587 683 l 642 733 l 786 733 l 585 -292 l 431 -292 l 508 88 "},"b":{"x_min":-1,"x_max":764,"ha":831,"o":"m 603 443 q 561 577 603 530 q 442 625 519 625 q 278 530 345 625 q 212 292 212 435 q 254 161 212 207 q 372 115 295 115 q 536 209 470 115 q 603 443 603 304 m 196 999 l 348 999 l 281 646 q 376 726 321 699 q 494 754 430 754 q 691 671 618 754 q 764 450 764 589 q 735 269 764 358 q 656 111 707 180 q 542 13 609 48 q 399 -21 475 -21 q 256 16 313 -21 q 169 127 199 53 l 144 0 l -1 0 l 196 999 "},"®":{"x_min":77,"x_max":1081,"ha":1157,"o":"m 495 710 l 495 533 l 574 533 q 673 553 642 533 q 705 619 705 574 q 672 687 705 665 q 569 710 639 710 l 495 710 m 374 786 l 590 786 q 768 747 708 786 q 829 633 829 708 q 796 531 829 571 q 703 477 763 490 l 829 224 l 694 224 l 582 458 l 495 458 l 495 224 l 374 224 l 374 786 m 579 922 q 416 891 491 922 q 281 800 341 860 q 185 658 219 736 q 152 495 152 579 q 183 333 152 410 q 275 195 215 256 q 413 101 336 134 q 572 68 491 68 q 739 99 660 68 q 880 193 817 131 q 973 327 941 251 q 1006 488 1006 403 q 975 655 1006 578 q 884 794 944 733 q 743 889 821 857 q 579 922 666 922 m 578 997 q 774 959 682 997 q 937 847 865 921 q 1044 686 1007 776 q 1081 495 1081 596 q 1043 300 1081 391 q 933 140 1005 210 q 768 30 860 68 q 578 -7 677 -7 q 386 32 478 -7 q 222 144 294 71 q 114 306 151 216 q 77 495 77 396 q 116 688 77 595 q 228 854 155 781 q 387 961 298 925 q 578 997 475 997 "},"L":{"x_min":11,"x_max":699,"ha":768,"o":"m 207 999 l 374 999 l 205 147 l 699 147 l 671 0 l 11 0 l 207 999 "}," ":{"x_min":0,"x_max":0,"ha":387},"∑":{"x_min":22,"x_max":936,"ha":964,"o":"m 41 999 l 909 999 l 909 846 l 284 846 l 723 381 l 275 -112 l 936 -112 l 936 -266 l 22 -266 l 22 -157 l 505 375 l 41 862 l 41 999 "},"À":{"x_min":-100,"x_max":792,"ha":865,"o":"m 506 830 l 277 386 l 570 386 l 506 830 m 430 999 l 630 999 l 792 0 l 626 0 l 590 244 l 205 244 l 77 0 l -100 0 l 430 999 m 360 1337 l 510 1337 l 641 1094 l 560 1094 l 360 1337 "},"+":{"x_min":172,"x_max":985,"ha":1157,"o":"m 521 828 l 636 828 l 636 471 l 985 471 l 985 358 l 636 358 l 636 0 l 521 0 l 521 358 l 172 358 l 172 471 l 521 471 l 521 828 "},"½":{"x_min":99,"x_max":1180,"ha":1209,"o":"m 848 75 l 1138 75 l 1121 0 l 726 0 q 768 118 730 67 q 896 222 807 168 q 929 242 908 229 q 1076 394 1076 329 q 1051 450 1076 429 q 983 471 1026 471 q 907 444 936 471 q 872 367 879 417 l 775 367 q 840 499 785 454 q 993 545 895 545 q 1127 502 1075 545 q 1180 392 1180 459 q 1143 294 1180 337 q 1000 191 1107 252 q 888 122 917 146 q 848 75 858 98 m 857 977 l 952 977 l 350 -27 l 255 -27 l 857 977 m 314 961 l 390 961 l 269 418 l 172 418 l 263 822 q 189 808 229 813 q 99 803 148 803 l 112 864 q 242 891 193 868 q 314 961 290 914 "},"Ë":{"x_min":8,"x_max":831,"ha":831,"o":"m 205 999 l 831 999 l 803 853 l 341 853 l 287 589 l 728 589 l 698 446 l 259 446 l 201 144 l 696 144 l 667 0 l 8 0 l 205 999 m 617 1287 l 754 1287 l 723 1134 l 589 1134 l 617 1287 m 391 1287 l 527 1287 l 497 1134 l 362 1134 l 391 1287 "},"'":{"x_min":58,"x_max":169,"ha":227,"o":"m 58 974 l 169 974 l 169 596 l 58 596 l 58 974 "},"Š":{"x_min":14,"x_max":808,"ha":823,"o":"m 808 712 l 650 712 q 600 840 648 795 q 463 885 552 885 q 340 849 386 885 q 295 757 295 814 q 326 672 295 707 q 459 587 357 636 q 674 444 615 513 q 734 281 734 376 q 632 57 734 142 q 366 -28 531 -28 q 108 57 203 -28 q 14 288 14 142 l 14 312 l 173 312 l 173 299 q 228 162 173 212 q 378 112 283 112 q 511 155 459 112 q 563 265 563 199 q 536 346 563 312 q 443 414 510 380 q 388 442 424 424 q 213 546 260 508 q 145 632 168 583 q 123 741 123 681 q 218 944 123 865 q 467 1023 313 1023 q 718 944 628 1023 q 808 726 808 866 l 808 712 m 370 1337 l 448 1337 l 539 1191 l 693 1337 l 781 1337 l 600 1094 l 461 1094 l 370 1337 "},"˛":{"x_min":93,"x_max":324,"ha":694,"o":"m 221 0 l 281 0 q 213 -75 235 -39 q 191 -144 191 -110 q 205 -186 191 -173 q 252 -199 219 -199 l 324 -199 l 302 -305 l 250 -305 q 132 -275 171 -305 q 93 -186 93 -245 q 123 -95 93 -139 q 221 0 154 -50 "},"ð":{"x_min":22,"x_max":751,"ha":823,"o":"m 568 663 q 521 750 548 711 q 461 820 495 789 l 261 745 l 233 814 l 398 877 q 346 914 375 895 q 280 953 317 932 l 330 1040 q 437 988 389 1014 q 523 931 485 961 l 716 1008 l 745 938 l 584 875 q 709 684 667 792 q 751 445 751 575 q 638 107 751 235 q 341 -20 526 -20 q 106 61 191 -20 q 22 287 22 143 q 52 457 22 376 q 138 598 83 538 q 258 685 192 656 q 405 714 324 714 q 491 701 450 714 q 568 663 533 688 m 421 596 q 249 505 319 596 q 179 283 179 415 q 223 155 179 200 q 348 110 267 110 q 521 199 452 110 q 590 422 590 288 q 545 549 590 503 q 421 596 500 596 "},"ş":{"x_min":-4,"x_max":633,"ha":688,"o":"m 633 501 l 489 501 q 451 599 484 567 q 351 632 417 632 q 266 611 297 632 q 236 554 236 590 q 349 445 236 501 q 387 426 373 433 q 549 318 512 362 q 586 212 586 274 q 505 40 586 104 q 288 -24 425 -24 q 74 44 152 -24 q -4 233 -4 113 l -4 253 l 142 253 q 181 131 142 172 q 297 91 220 91 q 396 117 361 91 q 431 190 431 143 q 404 249 431 222 q 278 324 378 275 q 116 430 152 386 q 81 539 81 474 q 155 693 81 634 q 352 753 230 753 q 557 689 482 753 q 633 515 633 625 l 633 501 m 220 0 l 279 0 l 256 -66 l 265 -66 q 376 -95 338 -66 q 415 -179 415 -124 q 370 -285 415 -246 q 248 -325 326 -325 q 161 -316 209 -325 q 49 -287 112 -307 l 76 -215 q 159 -238 121 -231 q 229 -246 197 -246 q 289 -231 269 -246 q 309 -186 309 -216 q 280 -144 309 -156 q 173 -133 252 -133 l 220 0 "},"ı":{"x_min":-3,"x_max":294,"ha":343,"o":"m 141 732 l 294 732 l 151 0 l -3 0 l 141 732 "},"Ć":{"x_min":60,"x_max":963,"ha":1000,"o":"m 963 664 l 800 664 q 737 821 797 765 q 573 878 677 878 q 429 840 493 878 q 318 729 365 802 q 252 578 275 660 q 230 408 230 496 q 295 194 230 269 q 481 119 360 119 q 653 178 581 119 q 759 350 725 238 l 921 350 q 763 72 885 172 q 463 -28 641 -28 q 166 89 272 -28 q 60 417 60 206 q 95 640 60 532 q 196 833 130 748 q 366 973 268 926 q 585 1021 464 1021 q 857 928 759 1021 q 963 664 956 835 m 659 1337 l 820 1337 l 590 1094 l 503 1094 l 659 1337 "},"ä":{"x_min":12,"x_max":676,"ha":775,"o":"m 488 360 q 361 334 440 341 q 258 321 282 327 q 185 277 210 307 q 160 203 160 247 q 189 127 160 155 q 271 99 219 99 q 420 165 365 99 q 488 360 474 232 m 667 485 l 612 205 q 606 170 607 182 q 605 149 605 158 q 616 111 605 123 q 654 99 628 99 l 666 99 l 646 -1 q 609 -9 629 -6 q 566 -12 589 -12 q 481 9 510 -12 q 452 73 452 30 l 452 85 q 355 6 409 32 q 235 -20 302 -20 q 72 37 132 -20 q 12 191 12 94 q 77 360 12 296 q 266 440 142 424 q 357 449 300 444 q 527 554 527 465 q 496 610 527 592 q 398 628 466 628 q 284 604 321 628 q 235 523 248 580 l 86 523 q 181 693 104 637 q 401 750 259 750 q 606 702 536 750 q 676 565 676 655 q 673 526 676 546 q 667 485 671 506 m 507 1018 l 644 1018 l 613 865 l 479 865 l 507 1018 m 281 1018 l 417 1018 l 387 865 l 252 865 l 281 1018 "},"¹":{"x_min":104,"x_max":408,"ha":511,"o":"m 328 962 l 408 962 l 281 380 l 180 380 l 272 813 q 201 799 241 804 q 104 791 161 793 l 117 858 q 253 888 203 863 q 328 962 304 913 "},"£":{"x_min":48,"x_max":754,"ha":775,"o":"m 746 663 l 600 663 q 605 696 603 679 q 607 731 607 713 q 574 832 607 798 q 479 867 541 867 q 357 812 401 867 q 313 660 313 757 q 316 590 313 626 q 325 516 319 554 l 555 516 l 540 433 l 334 433 q 335 421 334 427 q 335 402 335 415 q 301 258 335 325 q 194 122 267 190 q 270 143 238 136 q 323 149 302 149 q 440 131 364 149 q 552 114 516 114 q 619 127 587 114 q 686 169 652 141 l 648 9 q 586 -13 617 -5 q 525 -22 556 -22 q 384 6 480 -22 q 233 34 287 34 q 154 20 196 34 q 72 -19 112 7 l 48 108 q 156 224 120 160 q 192 367 192 288 q 190 401 192 385 q 185 433 189 418 l 58 433 l 75 516 l 172 516 q 158 593 163 556 q 154 662 154 630 q 243 900 154 810 q 479 990 332 990 q 680 924 607 990 q 754 747 754 859 q 752 711 754 731 q 746 663 750 691 "},"W":{"x_min":93,"x_max":1239,"ha":1174,"o":"m 93 999 l 247 999 l 290 276 l 577 999 l 741 999 l 792 278 l 1077 999 l 1239 999 l 830 0 l 670 0 l 619 762 l 320 0 l 166 0 l 93 999 "},"Ğ":{"x_min":58,"x_max":983,"ha":1061,"o":"m 983 670 l 818 670 q 752 823 813 768 q 585 878 691 878 q 439 844 503 878 q 327 740 376 810 q 255 585 281 674 q 229 404 229 496 q 299 191 229 268 q 492 114 370 114 q 684 187 602 114 q 797 385 766 260 l 509 385 l 536 517 l 981 517 l 881 0 l 762 0 l 768 107 q 630 5 709 39 q 455 -28 552 -28 q 165 89 272 -28 q 58 409 58 207 q 101 661 58 542 q 224 868 144 780 q 386 982 294 943 q 586 1022 479 1022 q 873 929 769 1022 q 983 670 977 836 m 491 1315 l 566 1315 l 566 1302 q 589 1236 566 1257 q 665 1215 613 1215 q 760 1239 722 1215 q 819 1315 798 1263 l 898 1315 q 810 1166 870 1216 q 656 1116 749 1116 q 531 1157 572 1116 q 490 1283 490 1198 q 490 1302 490 1295 q 491 1315 490 1309 "},"v":{"x_min":29,"x_max":686,"ha":652,"o":"m 29 733 l 178 733 l 250 173 l 521 733 l 686 733 l 306 0 l 138 0 l 29 733 "},">":{"x_min":179,"x_max":978,"ha":1157,"o":"m 179 797 l 978 467 l 978 359 l 179 32 l 179 155 l 812 413 l 179 671 l 179 797 "},"û":{"x_min":28,"x_max":753,"ha":796,"o":"m 133 733 l 288 733 l 195 262 q 193 251 195 259 q 187 200 187 217 q 213 136 187 159 q 286 114 239 114 q 441 175 379 114 q 526 355 502 237 l 601 733 l 753 733 l 609 0 l 469 0 l 490 112 q 371 17 433 49 q 240 -14 308 -14 q 81 31 135 -14 q 28 166 28 77 q 30 203 28 182 q 37 249 32 224 l 133 733 m 434 1068 l 574 1068 l 666 825 l 585 825 l 495 970 l 342 825 l 255 825 l 434 1068 "},"Ð":{"x_min":-4.0625,"x_max":948,"ha":1010,"o":"m 350 855 l 296 586 l 538 586 l 517 481 l 275 481 l 208 140 l 387 140 q 560 166 495 140 q 670 252 625 192 q 747 403 721 317 q 774 587 774 490 q 711 790 774 725 q 517 855 649 855 l 350 855 m 212 999 l 529 999 q 844 895 740 999 q 948 581 948 792 q 908 343 948 455 q 799 151 869 230 q 632 34 726 69 q 375 0 539 0 l 14 0 l 110 481 l -4 481 l 17 586 l 132 586 l 212 999 "},"r":{"x_min":-3,"x_max":513,"ha":484,"o":"m 513 747 l 481 582 q 455 584 468 583 q 431 586 443 586 q 296 528 348 586 q 220 348 244 470 l 151 0 l -3 0 l 141 732 l 284 732 l 255 592 q 355 713 304 675 q 468 751 407 751 q 490 750 479 751 q 513 747 502 749 "},"Č":{"x_min":60,"x_max":963,"ha":1000,"o":"m 963 664 l 800 664 q 737 821 797 765 q 573 878 677 878 q 429 840 493 878 q 318 729 365 802 q 252 578 275 660 q 230 408 230 496 q 295 194 230 269 q 481 119 360 119 q 653 178 581 119 q 759 350 725 238 l 921 350 q 763 72 885 172 q 463 -28 641 -28 q 166 89 272 -28 q 60 417 60 206 q 95 640 60 532 q 196 833 130 748 q 366 973 268 926 q 585 1021 464 1021 q 857 928 759 1021 q 963 664 956 835 m 448 1337 l 526 1337 l 617 1191 l 771 1337 l 859 1337 l 678 1094 l 539 1094 l 448 1337 "},"x":{"x_min":-87,"x_max":659,"ha":633,"o":"m 26 733 l 193 733 l 302 490 l 482 733 l 659 733 l 373 366 l 558 0 l 390 0 l 278 244 l 91 0 l -87 0 l 207 373 l 26 733 "},"è":{"x_min":25,"x_max":714,"ha":786,"o":"m 702 322 l 181 322 q 179 305 179 313 q 179 287 179 297 q 222 154 179 201 q 344 108 265 108 q 450 138 405 108 q 515 226 495 169 l 677 226 q 557 44 649 111 q 333 -22 465 -22 q 105 64 186 -22 q 25 308 25 151 q 132 629 25 504 q 406 754 239 754 q 631 670 549 754 q 714 442 714 587 q 711 387 714 417 q 702 322 708 357 m 553 435 q 554 445 554 439 q 555 461 555 451 q 516 583 555 539 q 409 628 477 628 q 274 578 327 628 q 199 435 220 529 l 553 435 m 239 1068 l 389 1068 l 520 825 l 439 825 l 239 1068 "},"Ø":{"x_min":41.65625,"x_max":1030.890625,"ha":1076,"o":"m 292 181 q 375 129 326 146 q 486 112 423 112 q 623 141 561 112 q 733 230 686 171 q 821 395 789 298 q 853 596 853 492 q 844 678 853 638 q 817 754 835 718 l 292 181 m 254 238 l 778 808 q 691 864 739 846 q 582 882 643 882 q 442 850 506 882 q 335 758 379 818 q 250 590 280 686 q 221 393 221 493 q 229 310 221 348 q 254 238 237 272 m 139 117 q 76 242 96 174 q 56 397 56 310 q 99 651 56 530 q 222 861 142 771 q 390 983 294 941 q 599 1025 486 1025 q 755 1001 685 1025 q 882 929 825 977 l 976 1033 l 1030 982 l 933 875 q 997 740 976 812 q 1018 582 1018 668 q 974 338 1018 454 q 849 133 931 223 q 682 13 779 54 q 470 -28 586 -28 q 312 -5 381 -28 q 189 63 242 17 l 95 -40 l 41 10 l 139 117 "},"÷":{"x_min":172,"x_max":986,"ha":1157,"o":"m 579 248 q 644 220 617 248 q 672 154 672 193 q 645 90 672 117 q 579 64 618 64 q 512 90 539 64 q 486 154 486 116 q 513 220 486 193 q 579 248 540 248 m 172 471 l 986 471 l 986 358 l 172 358 l 172 471 m 579 765 q 644 737 617 765 q 672 671 672 709 q 645 607 672 634 q 579 581 618 581 q 512 607 539 581 q 486 671 486 633 q 513 737 486 709 q 579 765 540 765 "},"h":{"x_min":-1,"x_max":725,"ha":803,"o":"m 196 999 l 348 999 l 277 636 q 392 721 333 694 q 518 749 451 749 q 670 702 615 749 q 725 575 725 656 q 722 534 725 557 q 715 485 720 511 l 619 0 l 464 0 l 557 472 q 563 511 561 495 q 566 538 566 526 q 540 599 566 578 q 466 621 514 621 q 311 558 373 621 q 226 379 249 496 l 152 0 l -1 0 l 196 999 "},".":{"x_min":14,"x_max":226,"ha":386,"o":"m 49 172 l 226 172 l 191 0 l 14 0 l 49 172 "},"f":{"x_min":11,"x_max":465,"ha":395,"o":"m 465 1001 l 442 873 q 410 878 424 876 q 387 880 397 880 q 342 865 357 880 q 315 792 327 851 l 302 733 l 418 733 l 397 616 l 280 616 l 164 0 l 11 0 l 128 616 l 27 616 l 48 733 l 149 733 l 169 831 q 236 966 187 923 q 373 1010 286 1010 q 412 1007 389 1010 q 465 1001 435 1005 "},"“":{"x_min":136,"x_max":607,"ha":596,"o":"m 607 1023 l 596 958 q 525 919 551 948 q 490 839 500 890 l 574 839 l 540 678 l 378 678 l 408 832 q 478 965 425 914 q 607 1023 531 1016 m 366 1023 l 353 958 q 283 918 309 948 q 248 839 256 888 l 333 839 l 299 678 l 136 678 l 167 832 q 237 965 184 914 q 366 1023 291 1016 "},"A":{"x_min":-100,"x_max":792,"ha":865,"o":"m 506 830 l 277 386 l 570 386 l 506 830 m 430 999 l 630 999 l 792 0 l 626 0 l 590 244 l 205 244 l 77 0 l -100 0 l 430 999 "},"O":{"x_min":56,"x_max":1018,"ha":1076,"o":"m 848 594 q 778 805 848 730 q 583 880 709 880 q 444 848 508 880 q 336 757 380 816 q 254 594 284 688 q 224 405 224 500 q 293 191 224 267 q 487 116 362 116 q 622 146 559 116 q 730 234 684 177 q 816 399 785 303 q 848 594 848 495 m 599 1026 q 906 909 794 1026 q 1018 587 1018 792 q 974 343 1018 461 q 849 134 930 225 q 684 13 780 55 q 474 -28 588 -28 q 167 87 279 -28 q 56 405 56 202 q 100 653 56 533 q 224 862 144 773 q 392 983 295 941 q 599 1026 490 1026 "},"π":{"x_min":12,"x_max":890,"ha":928,"o":"m 243 603 l 213 603 q 156 581 176 603 q 129 514 136 560 l 12 514 q 79 686 30 640 q 243 733 128 733 l 890 733 l 863 603 l 732 603 l 675 306 q 669 278 674 297 q 655 178 655 202 q 670 123 655 139 q 722 107 686 107 q 751 108 735 107 q 792 113 768 110 l 769 0 q 727 -8 749 -5 q 676 -11 705 -11 q 539 21 582 -11 q 496 126 496 54 q 531 359 496 178 l 532 363 l 579 603 l 397 603 l 280 0 l 127 0 l 243 603 "},"‘":{"x_min":136,"x_max":366,"ha":354,"o":"m 366 1023 l 353 958 q 283 918 309 948 q 248 839 256 888 l 333 839 l 299 678 l 136 678 l 167 832 q 237 965 184 914 q 366 1023 291 1016 "},"3":{"x_min":17,"x_max":725,"ha":775,"o":"m 558 488 q 645 407 616 457 q 675 287 675 357 q 577 59 675 147 q 324 -28 480 -28 q 97 45 178 -28 q 17 251 17 118 q 17 280 17 267 q 19 307 18 293 l 174 307 q 171 280 172 293 q 170 255 170 267 q 208 140 170 179 q 323 102 247 102 q 463 155 410 102 q 517 294 517 208 q 473 398 517 361 q 351 435 430 435 q 332 434 339 435 q 319 433 325 434 l 343 553 q 356 552 347 553 q 369 552 365 552 q 518 593 466 552 q 571 711 571 635 q 532 808 571 773 q 426 844 493 844 q 311 800 354 844 q 257 671 269 757 l 103 671 q 208 894 122 817 q 438 971 294 971 q 647 902 570 971 q 725 719 725 834 q 682 578 725 638 q 558 488 639 519 "},"9":{"x_min":29,"x_max":722,"ha":775,"o":"m 568 670 q 527 801 568 755 q 413 848 487 848 q 280 780 333 848 q 228 608 228 712 q 267 484 228 529 q 379 440 307 440 q 514 504 461 440 q 568 670 568 568 m 29 237 l 178 237 q 209 132 179 167 q 298 98 239 98 q 445 171 385 98 q 532 387 505 245 q 443 332 492 350 q 336 314 395 314 q 142 391 215 314 q 69 596 69 468 q 166 866 69 762 q 420 971 264 971 q 645 878 568 971 q 722 608 722 785 q 687 345 722 472 q 589 128 652 218 q 460 11 536 51 q 292 -29 385 -29 q 97 38 165 -29 q 29 230 29 105 l 29 237 "},"l":{"x_min":1,"x_max":350,"ha":345,"o":"m 197 999 l 350 999 l 155 0 l 1 0 l 197 999 "},"":{"x_min":11,"x_max":737,"ha":736,"o":"m 386 0 l 529 731 l 683 731 l 539 0 l 386 0 m 553 842 l 584 999 l 737 999 l 706 842 l 553 842 m 11 0 l 129 616 l 27 616 l 48 733 l 151 733 l 169 832 q 237 966 187 923 q 373 1010 286 1010 q 412 1007 389 1010 q 465 1001 435 1005 l 442 873 q 410 878 425 876 q 385 880 396 880 q 340 864 354 880 q 315 792 325 848 l 302 733 l 419 733 l 397 616 l 280 616 l 164 0 l 11 0 "},"4":{"x_min":1,"x_max":718,"ha":775,"o":"m 526 772 l 157 356 l 442 356 l 526 772 m 551 950 l 712 950 l 594 356 l 718 356 l 694 230 l 570 230 l 524 0 l 373 0 l 417 230 l 1 230 l 26 370 l 551 950 "},"Ü":{"x_min":69,"x_max":975,"ha":982,"o":"m 204 999 l 372 999 l 245 359 q 238 311 240 328 q 236 282 236 294 q 285 165 236 206 q 427 124 335 124 q 596 178 535 124 q 680 351 657 233 l 810 999 l 975 999 l 845 340 q 702 65 808 156 q 416 -26 596 -26 q 163 55 258 -26 q 69 271 69 137 q 73 327 69 294 q 85 404 77 360 l 204 999 m 693 1287 l 830 1287 l 799 1134 l 665 1134 l 693 1287 m 467 1287 l 603 1287 l 573 1134 l 438 1134 l 467 1287 "},"à":{"x_min":12,"x_max":676,"ha":775,"o":"m 488 360 q 361 334 440 341 q 258 321 282 327 q 185 277 210 307 q 160 203 160 247 q 189 127 160 155 q 271 99 219 99 q 420 165 365 99 q 488 360 474 232 m 667 485 l 612 205 q 606 170 607 182 q 605 149 605 158 q 616 111 605 123 q 654 99 628 99 l 666 99 l 646 -1 q 609 -9 629 -6 q 566 -12 589 -12 q 481 9 510 -12 q 452 73 452 30 l 452 85 q 355 6 409 32 q 235 -20 302 -20 q 72 37 132 -20 q 12 191 12 94 q 77 360 12 296 q 266 440 142 424 q 357 449 300 444 q 527 554 527 465 q 496 610 527 592 q 398 628 466 628 q 284 604 321 628 q 235 523 248 580 l 86 523 q 181 693 104 637 q 401 750 259 750 q 606 702 536 750 q 676 565 676 655 q 673 526 676 546 q 667 485 671 506 m 246 1068 l 396 1068 l 527 825 l 446 825 l 246 1068 "},"ó":{"x_min":22,"x_max":750,"ha":822,"o":"m 590 446 q 545 578 590 531 q 419 626 500 626 q 248 529 318 626 q 179 292 179 433 q 222 157 179 205 q 345 110 266 110 q 521 204 453 110 q 590 446 590 298 m 430 755 q 664 669 579 755 q 750 433 750 583 q 635 106 750 233 q 341 -21 520 -21 q 107 64 192 -21 q 22 300 22 150 q 137 626 22 498 q 430 755 252 755 m 502 1068 l 663 1068 l 433 825 l 346 825 l 502 1068 "}}}
